<?xml version="1.0" encoding="utf-8"?>
<!-- Generator: Adobe Illustrator 19.2.1, SVG Export Plug-In . SVG Version: 6.00 Build 0)  -->
<svg version="1.1" id="Layer_1" xmlns="http://www.w3.org/2000/svg" xmlns:xlink="http://www.w3.org/1999/xlink" x="0px" y="0px"
	 viewBox="0 0 453.8 296.7" style="enable-background:new 0 0 453.8 296.7;" xml:space="preserve">
<style type="text/css">
	.st0{fill:none;stroke:#000000;stroke-width:0.7;stroke-miterlimit:10;}
	.st1{font-family:'STIXGeneral-Bold';}
	.st2{font-size:24px;}
	.st3{fill:none;stroke:#000000;stroke-width:1.3;stroke-miterlimit:10;}
	.st4{font-family:'STIXGeneral-BoldItalic';}
	.st5{font-size:32px;}
	.st6{opacity:0.6;fill:#1780FF;stroke:#000000;stroke-width:0.7;stroke-miterlimit:10;}
	.st7{opacity:0.7;fill:#F8AB99;stroke:#000000;stroke-width:0.7;stroke-miterlimit:10;}
	.st8{font-size:18px;}
	.st9{font-size:30px;}
	.st10{fill:none;stroke:#231F20;stroke-width:1.3;stroke-miterlimit:10;}
	.st11{font-size:25px;}
</style>
<g>
	<g>
		<g>
			<line class="st0" x1="364.1" y1="260.4" x2="418.4" y2="260.4"/>
			<g>
				<path d="M417.1,260.4l-1.5-2.5l0.1-0.1l4.1,1.6c1.4,0.3,2.9,0.6,4.3,0.9c-1.4,0.3-2.9,0.6-4.3,0.9l-4.1,1.6h-0.1L417.1,260.4z"
					/>
			</g>
		</g>
	</g>
	<g>
		<g>
			<line class="st0" x1="364.1" y1="261.4" x2="364.1" y2="207.1"/>
			<g>
				<path d="M364.1,208.3l-2.5,1.5l-0.1-0.1l1.6-4.1c0.3-1.4,0.6-2.9,0.9-4.3c0.3,1.4,0.6,2.9,0.9,4.3l1.6,4.1v0.1L364.1,208.3z"/>
			</g>
		</g>
	</g>
</g>
<g>
	<text transform="matrix(1 0 0 1 371.2751 212.8477)" class="st1 st2">j</text>
	<g>
		<line class="st3" x1="370.1" y1="201.2" x2="376" y2="189.9"/>
		<line class="st3" x1="382.1" y1="201.2" x2="376.2" y2="189.9"/>
	</g>
</g>
<g>
	<text transform="matrix(1 0 0 1 421.0576 255.6383)" class="st1 st2">i</text>
	<g>
		<line class="st3" x1="418.1" y1="245" x2="424" y2="233.7"/>
		<line class="st3" x1="430.1" y1="245" x2="424.2" y2="233.7"/>
	</g>
</g>
<text transform="matrix(1 0 0 1 116.2094 143.489)" class="st4 st5">a</text>
<text transform="matrix(1 0 0 1 224.0045 72.3556)" class="st4 st5">a</text>
<line class="st0" x1="137.7" y1="35.3" x2="137.7" y2="235.3"/>
<line class="st0" x1="311.3" y1="136.3" x2="138.1" y2="236.3"/>
<line class="st0" x1="312.3" y1="136.3" x2="139.1" y2="36.3"/>
<circle class="st6" cx="312.3" cy="138" r="14"/>
<circle class="st7" cx="137.4" cy="38.2" r="14"/>
<circle class="st6" cx="136.4" cy="235" r="14"/>
<text transform="matrix(1 0 0 1 218.6712 212.1671)" class="st4 st5">a</text>
<text transform="matrix(1 0 0 1 133.4 266.2941)" class="st1 st8">1</text>
<text transform="matrix(1 0 0 1 133.4 19.6665)" class="st1 st8">2</text>
<text transform="matrix(1 0 0 1 283.7735 140.9669)" class="st1 st8">3</text>
<g>
	<g>
		<g>
			<text transform="matrix(1 0 0 1 93.942 40.9021)" class="st4 st9">q</text>
		</g>
	</g>
	<g>
		<line class="st10" x1="83.3" y1="27.3" x2="83.3" y2="43"/>
		<line class="st10" x1="75.5" y1="35.2" x2="91.2" y2="35.2"/>
	</g>
</g>
<g>
	<g>
		<text transform="matrix(1 0 0 1 349.942 141.9021)" class="st4 st9">q</text>
	</g>
	<line class="st10" x1="331.3" y1="135.7" x2="347" y2="135.7"/>
</g>
<g>
	<g>
		<g>
			<text transform="matrix(1 0 0 1 93.413 242.7023)" class="st4 st9">q</text>
		</g>
	</g>
	<line class="st10" x1="63" y1="236.3" x2="78.7" y2="236.3"/>
	<text transform="matrix(1 0 0 1 80.3333 242.7023)" class="st1 st11">2</text>
</g>
</svg>
