<?xml version="1.0" encoding="utf-8"?>
<!-- Generator: Adobe Illustrator 21.1.0, SVG Export Plug-In . SVG Version: 6.00 Build 0)  -->
<svg version="1.1" id="Layer_1" xmlns="http://www.w3.org/2000/svg" xmlns:xlink="http://www.w3.org/1999/xlink" x="0px" y="0px"
	 viewBox="0 0 556 296.7" style="enable-background:new 0 0 556 296.7;" xml:space="preserve">
<style type="text/css">
	.st0{fill:none;stroke:#000000;stroke-width:0.7;stroke-miterlimit:10;stroke-dasharray:3,3;}
	.st1{fill:none;stroke:#000000;stroke-width:0.7;stroke-miterlimit:10;}
	.st2{font-family:'STIXGeneral-Bold';}
	.st3{font-size:24px;}
	.st4{fill:none;stroke:#000000;stroke-width:1.3;stroke-miterlimit:10;}
	.st5{opacity:0.7;fill:#33FF4E;stroke:#000000;stroke-width:0.7;stroke-miterlimit:10;enable-background:new    ;}
	.st6{opacity:0.7;fill:#FF0022;stroke:#000000;stroke-width:0.7;stroke-miterlimit:10;enable-background:new    ;}
	.st7{fill:none;stroke:#231F20;stroke-width:1.3;stroke-miterlimit:10;}
	.st8{font-family:'STIXGeneral-BoldItalic';}
	.st9{font-size:30px;}
	.st10{fill:none;stroke:#231F20;stroke-width:2;stroke-miterlimit:10;}
	.st11{font-size:28px;}
	.st12{font-family:'ArialMT';}
	.st13{fill:none;stroke:#000000;stroke-miterlimit:10;}
	.st14{font-size:32px;}
	.st15{font-size:26px;}
</style>
<line class="st0" x1="178" y1="152" x2="530" y2="152"/>
<g>
	<g>
		<g>
			<g>
				<line class="st1" x1="29.3" y1="99.1" x2="83.6" y2="99.1"/>
				<g>
					<path d="M82.3,99.1l-1.5-2.5l0.1-0.1l4.1,1.6c1.4,0.3,2.9,0.6,4.3,0.9c-1.4,0.3-2.9,0.6-4.3,0.9l-4.1,1.6h-0.1L82.3,99.1z"/>
				</g>
			</g>
		</g>
		<g>
			<g>
				<line class="st1" x1="29.3" y1="100.1" x2="29.3" y2="45.8"/>
				<g>
					<path d="M29.3,47l-2.5,1.5l-0.1-0.1l1.6-4.1c0.3-1.4,0.6-2.9,0.9-4.3c0.3,1.4,0.6,2.9,0.9,4.3l1.6,4.1v0.1L29.3,47z"/>
				</g>
			</g>
		</g>
	</g>
	<g>
		<text transform="matrix(1 0 0 1 36.4252 51.4977)" class="st2 st3">j</text>
		<g>
			<line class="st4" x1="35.3" y1="39.9" x2="41.2" y2="28.6"/>
			<line class="st4" x1="47.3" y1="39.9" x2="41.4" y2="28.6"/>
		</g>
	</g>
	<g>
		<text transform="matrix(1 0 0 1 86.2077 94.2883)" class="st2 st3">i</text>
		<g>
			<line class="st4" x1="83.3" y1="83.7" x2="89.2" y2="72.4"/>
			<line class="st4" x1="95.3" y1="83.7" x2="89.4" y2="72.4"/>
		</g>
	</g>
</g>
<line class="st0" x1="276" y1="46.3" x2="276" y2="267"/>
<circle class="st5" cx="276" cy="265.3" r="14"/>
<circle class="st6" cx="276.4" cy="45" r="14"/>
<g>
	<g>
		<line class="st7" x1="296.1" y1="266" x2="311.8" y2="266"/>
	</g>
	<g>
		<g>
			<g>
				<text transform="matrix(1 0 0 1 314.862 272.5504)" class="st8 st9">q</text>
			</g>
		</g>
	</g>
</g>
<g>
	<g>
		<g>
			<line class="st1" x1="251.6" y1="148" x2="251.6" y2="53.5"/>
			<g>
				<path d="M251.6,146.8l-2.5-1.5l-0.1,0.1l1.6,4.1c0.3,1.4,0.6,2.9,0.9,4.3c0.3-1.4,0.6-2.9,0.9-4.3l1.6-4.1l0-0.1L251.6,146.8z"
					/>
			</g>
			<g>
				<path d="M251.6,54.7l-2.5,1.5l-0.1-0.1l1.6-4.1c0.3-1.4,0.6-2.9,0.9-4.3c0.3,1.4,0.6,2.9,0.9,4.3l1.6,4.1l0,0.1L251.6,54.7z"/>
			</g>
		</g>
	</g>
	<line class="st1" x1="240.9" y1="46.2" x2="262.4" y2="46.2"/>
</g>
<g>
	<line class="st1" x1="242.8" y1="264.6" x2="262.3" y2="264.6"/>
	<g>
		<g>
			<line class="st1" x1="251.5" y1="258.5" x2="251.5" y2="163.9"/>
			<g>
				<path d="M251.5,257.3l-2.5-1.5l-0.1,0.1l1.6,4.1c0.3,1.4,0.6,2.9,0.9,4.3c0.3-1.4,0.6-2.9,0.9-4.3l1.6-4.1l0-0.1L251.5,257.3z"
					/>
			</g>
			<g>
				<path d="M251.5,165.2l-2.5,1.5l-0.1-0.1l1.6-4.1c0.3-1.4,0.6-2.9,0.9-4.3c0.3,1.4,0.6,2.9,0.9,4.3l1.6,4.1l0,0.1L251.5,165.2z"
					/>
			</g>
		</g>
	</g>
</g>
<g>
	<g>
		<g>
			<g>
				<text transform="matrix(1 0 0 1 314.7502 52.5498)" class="st8 st9">q</text>
			</g>
		</g>
	</g>
	<g>
		<line class="st10" x1="304.8" y1="38.2" x2="304.8" y2="53.8"/>
		<line class="st10" x1="297" y1="46.1" x2="312.7" y2="46.1"/>
	</g>
</g>
<text transform="matrix(1 0 0 1 501.2751 192)" class="st8 st11">P</text>
<text transform="matrix(1 0 0 1 501.2751 159.2383)" class="st12 st11">x</text>
<g>
	<g>
		<line class="st13" x1="284.2" y1="152" x2="497.8" y2="152"/>
		<g>
			<path d="M285.9,152l2.2-3.6l-0.1-0.1l-5.9,2.3c-2,0.5-4.1,0.9-6.1,1.4c2,0.5,4.1,0.9,6.1,1.4l5.9,2.3l0.1-0.1L285.9,152z"/>
		</g>
		<g>
			<path d="M496.1,152l-2.2-3.6l0.1-0.1l5.9,2.3c2,0.5,4.1,0.9,6.1,1.4c-2,0.5-4.1,0.9-6.1,1.4l-5.9,2.3l-0.1-0.1L496.1,152z"/>
		</g>
	</g>
</g>
<g>
	<g>
		<g>
			<text transform="matrix(1 0 0 1 391.0002 140.5498)" class="st8 st9">d</text>
		</g>
	</g>
</g>
<path class="st13" d="M236.9,225"/>
<g>
	<text transform="matrix(1 0 0 1 219.9467 100.75)" class="st8 st14">a</text>
	<line class="st13" x1="216.9" y1="106" x2="236.9" y2="106"/>
	<g>
		<g>
			<g>
				<text transform="matrix(1 0 0 1 221.0002 127.5498)" class="st2 st15">2</text>
			</g>
		</g>
	</g>
</g>
<g>
	<text transform="matrix(1 0 0 1 219.9467 202.75)" class="st8 st14">a</text>
	<line class="st13" x1="216.9" y1="208" x2="236.9" y2="208"/>
	<g>
		<g>
			<g>
				<text transform="matrix(1 0 0 1 221.0002 229.5498)" class="st2 st15">2</text>
			</g>
		</g>
	</g>
</g>
</svg>
