<?xml version="1.0" encoding="utf-8"?>
<!-- Generator: Adobe Illustrator 19.2.1, SVG Export Plug-In . SVG Version: 6.00 Build 0)  -->
<svg version="1.1" id="Layer_1" xmlns="http://www.w3.org/2000/svg" xmlns:xlink="http://www.w3.org/1999/xlink" x="0px" y="0px"
	 viewBox="0 0 453.8 197" style="enable-background:new 0 0 453.8 197;" xml:space="preserve">
<style type="text/css">
	.st0{fill:none;stroke:#000000;stroke-width:0.7;stroke-miterlimit:10;}
	.st1{fill:#1780FF;stroke:#000000;stroke-width:0.7;stroke-miterlimit:10;}
	.st2{fill:#F8AB99;stroke:#000000;stroke-width:0.7;stroke-miterlimit:10;}
	.st3{font-family:'STIXGeneral-Bold';}
	.st4{font-size:24px;}
	.st5{fill:none;stroke:#000000;stroke-width:1.3;stroke-miterlimit:10;}
	.st6{font-family:'STIXGeneral-BoldItalic';}
	.st7{font-size:32px;}
	.st8{font-size:30px;}
	.st9{font-size:16px;}
</style>
<g>
	<g>
		<g>
			<line class="st0" x1="364.1" y1="171.7" x2="418.4" y2="171.7"/>
			<g>
				<path d="M417.1,171.7l-1.5-2.5l0.1-0.1l4.1,1.6c1.4,0.3,2.9,0.6,4.3,0.9c-1.4,0.3-2.9,0.6-4.3,0.9l-4.1,1.6h-0.1L417.1,171.7z"
					/>
			</g>
		</g>
	</g>
	<g>
		<g>
			<line class="st0" x1="364.1" y1="172.7" x2="364.1" y2="118.4"/>
			<g>
				<path d="M364.1,119.6l-2.5,1.5l-0.1-0.1l1.6-4.1c0.3-1.4,0.6-2.9,0.9-4.3c0.3,1.4,0.6,2.9,0.9,4.3l1.6,4.1v0.1L364.1,119.6z"/>
			</g>
		</g>
	</g>
</g>
<circle class="st1" cx="136.4" cy="135.3" r="14"/>
<circle class="st2" cx="326.1" cy="43" r="14"/>
<g>
	<text transform="matrix(1 0 0 1 371.2751 124.181)" class="st3 st4">j</text>
	<g>
		<line class="st5" x1="370.1" y1="112.5" x2="376" y2="101.2"/>
		<line class="st5" x1="382.1" y1="112.5" x2="376.2" y2="101.2"/>
	</g>
</g>
<g>
	<text transform="matrix(1 0 0 1 421.0576 166.9716)" class="st3 st4">i</text>
	<g>
		<line class="st5" x1="418.1" y1="156.3" x2="424" y2="145"/>
		<line class="st5" x1="430.1" y1="156.3" x2="424.2" y2="145"/>
	</g>
</g>
<circle class="st2" cx="137.4" cy="40.5" r="14"/>
<g>
	<g>
		<line class="st0" x1="143.3" y1="43" x2="320.9" y2="43"/>
		<g>
			<path d="M144.6,43l1.5-2.5l-0.1-0.1l-4.1,1.6c-1.4,0.3-2.9,0.6-4.3,0.9c1.4,0.3,2.9,0.6,4.3,0.9l4.1,1.6h0.1L144.6,43z"/>
		</g>
		<g>
			<path d="M319.6,43l-1.5-2.5l0.1-0.1l4.1,1.6c1.4,0.3,2.9,0.6,4.3,0.9c-1.4,0.3-2.9,0.6-4.3,0.9l-4.1,1.6h-0.1L319.6,43z"/>
		</g>
	</g>
</g>
<text transform="matrix(1 0 0 1 116.2092 93.1557)" class="st6 st7">a</text>
<text transform="matrix(1 0 0 1 233.6171 31.1835)" class="st6 st7">a</text>
<text transform="matrix(1 0 0 1 219.0641 31.1835)" class="st3 st4">2</text>
<g>
	<g>
		<line class="st0" x1="136.9" y1="46.2" x2="136.9" y2="132.8"/>
		<g>
			<path d="M136.9,47.5l2.5,1.5l0.1-0.1l-1.6-4.1c-0.3-1.4-0.6-2.9-0.9-4.3c-0.3,1.4-0.6,2.9-0.9,4.3l-1.6,4.1V49L136.9,47.5z"/>
		</g>
		<g>
			<path d="M136.9,131.5l2.5-1.5l0.1,0.1l-1.6,4.1c-0.3,1.4-0.6,2.9-0.9,4.3c-0.3-1.4-0.6-2.9-0.9-4.3l-1.6-4.1V130L136.9,131.5z"/>
		</g>
	</g>
</g>
<g>
	<text transform="matrix(1 0 0 1 86.942 33.2354)" class="st6 st8">q</text>
</g>
<text transform="matrix(1 0 0 1 98 45.7648)" class="st3 st9">2</text>
<g>
	<text transform="matrix(1 0 0 1 85.5013 137.9134)" class="st6 st8">q</text>
</g>
<text transform="matrix(1 0 0 1 96.5593 150.4428)" class="st3 st9">1</text>
<g>
	<text transform="matrix(1 0 0 1 345.942 49.2354)" class="st6 st8">q</text>
</g>
<text transform="matrix(1 0 0 1 357 61.7648)" class="st3 st9">3</text>
</svg>
