<?xml version="1.0" encoding="utf-8"?>
<!-- Generator: Adobe Illustrator 17.1.0, SVG Export Plug-In . SVG Version: 6.00 Build 0)  -->
<!DOCTYPE svg PUBLIC "-//W3C//DTD SVG 1.1//EN" "http://www.w3.org/Graphics/SVG/1.1/DTD/svg11.dtd">
<svg version="1.1" id="Layer_1" xmlns="http://www.w3.org/2000/svg" xmlns:xlink="http://www.w3.org/1999/xlink" x="0px" y="0px"
	 viewBox="0 0 792 612" enable-background="new 0 0 792 612" xml:space="preserve">
<g>
	<g>
		<g>
			<g>
				<line fill="none" stroke="#000000" stroke-width="0.7" stroke-miterlimit="10" x1="667.4" y1="277.5" x2="741.2" y2="277.5"/>
				<g>
					<path d="M739.6,277.5l-2-3.4l0.1-0.1l5.6,2.2c1.9,0.4,3.9,0.8,5.8,1.2c-1.9,0.4-3.9,0.8-5.8,1.2l-5.6,2.2h-0.1L739.6,277.5z"/>
				</g>
			</g>
		</g>
		<g>
			<g>
				<line fill="none" stroke="#000000" stroke-width="0.7" stroke-miterlimit="10" x1="667.4" y1="278.8" x2="667.4" y2="205.1"/>
				<g>
					<path d="M667.4,206.8l-3.4,2l-0.1-0.1l2.2-5.6c0.4-1.9,0.8-3.9,1.2-5.8c0.4,1.9,0.8,3.9,1.2,5.8l2.2,5.6v0.1L667.4,206.8z"/>
				</g>
			</g>
		</g>
	</g>
	<g>
		<text transform="matrix(1 0 0 1 677.2081 212.963)" font-family="'STIXGeneral-Bold'" font-size="32.6038">j</text>
		<g>
			<line fill="none" stroke="#000000" stroke-width="1.3" stroke-miterlimit="10" x1="675.6" y1="197" x2="683.6" y2="181.7"/>
			<line fill="none" stroke="#000000" stroke-width="1.3" stroke-miterlimit="10" x1="691.9" y1="197" x2="683.9" y2="181.7"/>
		</g>
	</g>
	<g>
		<text transform="matrix(1 0 0 1 744.8369 271.0938)" font-family="'STIXGeneral-Bold'" font-size="32.6038">i</text>
		<g>
			<line fill="none" stroke="#000000" stroke-width="1.3" stroke-miterlimit="10" x1="740.8" y1="256.7" x2="748.8" y2="241.2"/>
			<line fill="none" stroke="#000000" stroke-width="1.3" stroke-miterlimit="10" x1="757.1" y1="256.7" x2="749.1" y2="241.2"/>
		</g>
	</g>
</g>
<g>
	<text transform="matrix(1 0 0 1 140.6719 193.5851)" font-family="'STIXGeneral-BoldItalic'" font-size="48.9057">q</text>
	<text transform="matrix(1 0 0 1 157.5177 212.6034)" font-family="'STIXGeneral-Bold'" font-size="26.083">1</text>
</g>
<g>
	<text transform="matrix(1 0 0 1 480.9727 440.9442)" font-family="'STIXGeneral-BoldItalic'" font-size="48.9057">q</text>
	<text transform="matrix(1 0 0 1 497.8194 459.9618)" font-family="'STIXGeneral-Bold'" font-size="26.083">2</text>
</g>
<g>
	<circle fill="#F8AB99" stroke="#000000" stroke-width="0.7" stroke-miterlimit="10" cx="528.2" cy="404.9" r="19"/>
	<ellipse stroke="#000000" stroke-width="0.7" stroke-miterlimit="10" cx="528.2" cy="404.8" rx="2" ry="2"/>
</g>
<path fill="none" stroke="#000000" stroke-width="0.7" stroke-miterlimit="10" stroke-dasharray="3,3" d="M486.1,226.5"/>
<path fill="none" stroke="#000000" stroke-width="0.7" stroke-miterlimit="10" stroke-dasharray="3,3" d="M486.1,370.7"/>
<path fill="none" stroke="#000000" stroke-width="0.7" stroke-miterlimit="10" stroke-dasharray="3,3" d="M662.7,128.9"/>
<path fill="none" stroke="#000000" stroke-width="0.7" stroke-miterlimit="10" stroke-dasharray="3,3" d="M486.1-26.2"/>
<g>
	
		<line fill="none" stroke="#000000" stroke-width="0.7" stroke-miterlimit="10" stroke-dasharray="3,3" x1="615.1" y1="73.4" x2="615.1" y2="244.1"/>
	<g>
		
			<line fill="none" stroke="#000000" stroke-width="0.7" stroke-miterlimit="10" stroke-dasharray="3,3" x1="613.8" y1="237.8" x2="613.8" y2="489.9"/>
		<g>
			
				<line fill="none" stroke="#000000" stroke-width="0.7" stroke-miterlimit="10" stroke-dasharray="3,3" x1="361.4" y1="218" x2="361.4" y2="489.5"/>
			
				<line fill="none" stroke="#000000" stroke-width="0.7" stroke-miterlimit="10" stroke-dasharray="3,3" x1="362.4" y1="238.5" x2="444" y2="238.5"/>
			
				<line fill="none" stroke="#000000" stroke-width="0.7" stroke-miterlimit="10" stroke-dasharray="3,3" x1="444" y1="239.2" x2="444" y2="491.3"/>
			
				<line fill="none" stroke="#000000" stroke-width="0.7" stroke-miterlimit="10" stroke-dasharray="3,3" x1="362.4" y1="322.2" x2="445.3" y2="322.2"/>
			
				<line fill="none" stroke="#000000" stroke-width="0.7" stroke-miterlimit="10" stroke-dasharray="3,3" x1="448" y1="238.5" x2="529.5" y2="238.5"/>
			
				<line fill="none" stroke="#000000" stroke-width="0.7" stroke-miterlimit="10" stroke-dasharray="3,3" x1="529.5" y1="239.2" x2="529.5" y2="491.3"/>
			
				<line fill="none" stroke="#000000" stroke-width="0.7" stroke-miterlimit="10" stroke-dasharray="3,3" x1="448" y1="322.2" x2="530.9" y2="322.2"/>
			<path fill="none" stroke="#000000" stroke-width="0.7" stroke-miterlimit="10" stroke-dasharray="3,3" d="M529.5,237.8"/>
			
				<line fill="none" stroke="#000000" stroke-width="0.7" stroke-miterlimit="10" stroke-dasharray="3,3" x1="530.9" y1="238.5" x2="612.4" y2="238.5"/>
			
				<line fill="none" stroke="#000000" stroke-width="0.7" stroke-miterlimit="10" stroke-dasharray="3,3" x1="530.9" y1="322.2" x2="613.8" y2="322.2"/>
			<path fill="none" stroke="#000000" stroke-width="0.7" stroke-miterlimit="10" stroke-dasharray="3,3" d="M442.6,521.7"/>
			<path fill="none" stroke="#000000" stroke-width="0.7" stroke-miterlimit="10" stroke-dasharray="3,3" d="M361.1,380.4"/>
			<path fill="none" stroke="#000000" stroke-width="0.7" stroke-miterlimit="10" stroke-dasharray="3,3" d="M362.4,523.2"/>
			
				<line fill="none" stroke="#000000" stroke-width="0.7" stroke-miterlimit="10" stroke-dasharray="3,3" x1="361.1" y1="405" x2="444" y2="405"/>
			
				<line fill="none" stroke="#000000" stroke-width="0.7" stroke-miterlimit="10" stroke-dasharray="3,3" x1="446.7" y1="405" x2="529.5" y2="405"/>
			
				<line fill="none" stroke="#000000" stroke-width="0.7" stroke-miterlimit="10" stroke-dasharray="3,3" x1="529.5" y1="405" x2="612.4" y2="405"/>
			
				<line fill="none" stroke="#000000" stroke-width="0.7" stroke-miterlimit="10" stroke-dasharray="3,3" x1="359.7" y1="489.3" x2="442.6" y2="489.3"/>
			
				<line fill="none" stroke="#000000" stroke-width="0.7" stroke-miterlimit="10" stroke-dasharray="3,3" x1="445.3" y1="489.3" x2="528.2" y2="489.3"/>
			
				<line fill="none" stroke="#000000" stroke-width="0.7" stroke-miterlimit="10" stroke-dasharray="3,3" x1="528.2" y1="489.3" x2="611" y2="489.3"/>
			
				<line fill="none" stroke="#000000" stroke-width="0.7" stroke-miterlimit="10" stroke-dasharray="3,3" x1="110" y1="218" x2="110" y2="489.5"/>
			
				<line fill="none" stroke="#000000" stroke-width="0.7" stroke-miterlimit="10" stroke-dasharray="3,3" x1="111.1" y1="238.5" x2="192.6" y2="238.5"/>
			
				<line fill="none" stroke="#000000" stroke-width="0.7" stroke-miterlimit="10" stroke-dasharray="3,3" x1="192.6" y1="239.2" x2="192.6" y2="491.3"/>
			
				<line fill="none" stroke="#000000" stroke-width="0.7" stroke-miterlimit="10" stroke-dasharray="3,3" x1="111.1" y1="322.2" x2="194" y2="322.2"/>
			
				<line fill="none" stroke="#000000" stroke-width="0.7" stroke-miterlimit="10" stroke-dasharray="3,3" x1="196.7" y1="238.5" x2="278.2" y2="238.5"/>
			
				<line fill="none" stroke="#000000" stroke-width="0.7" stroke-miterlimit="10" stroke-dasharray="3,3" x1="278.2" y1="239.2" x2="278.2" y2="491.3"/>
			
				<line fill="none" stroke="#000000" stroke-width="0.7" stroke-miterlimit="10" stroke-dasharray="3,3" x1="196.7" y1="322.2" x2="279.6" y2="322.2"/>
			<path fill="none" stroke="#000000" stroke-width="0.7" stroke-miterlimit="10" stroke-dasharray="3,3" d="M359.7,379.1"/>
			<path fill="none" stroke="#000000" stroke-width="0.7" stroke-miterlimit="10" stroke-dasharray="3,3" d="M278.2,237.8"/>
			
				<line fill="none" stroke="#000000" stroke-width="0.7" stroke-miterlimit="10" stroke-dasharray="3,3" x1="279.6" y1="238.5" x2="361.1" y2="238.5"/>
			<path fill="none" stroke="#000000" stroke-width="0.7" stroke-miterlimit="10" stroke-dasharray="3,3" d="M361.1,491.3"/>
			
				<line fill="none" stroke="#000000" stroke-width="0.7" stroke-miterlimit="10" stroke-dasharray="3,3" x1="279.6" y1="322.2" x2="362.4" y2="322.2"/>
			<path fill="none" stroke="#000000" stroke-width="0.7" stroke-miterlimit="10" stroke-dasharray="3,3" d="M109.8,380.4"/>
			
				<line fill="none" stroke="#000000" stroke-width="0.7" stroke-miterlimit="10" stroke-dasharray="3,3" x1="109.8" y1="405" x2="192.6" y2="405"/>
			
				<line fill="none" stroke="#000000" stroke-width="0.7" stroke-miterlimit="10" stroke-dasharray="3,3" x1="195.4" y1="405" x2="278.2" y2="405"/>
			
				<line fill="none" stroke="#000000" stroke-width="0.7" stroke-miterlimit="10" stroke-dasharray="3,3" x1="278.2" y1="405" x2="361.1" y2="405"/>
			
				<line fill="none" stroke="#000000" stroke-width="0.7" stroke-miterlimit="10" stroke-dasharray="3,3" x1="108.4" y1="489.3" x2="191.3" y2="489.3"/>
			
				<line fill="none" stroke="#000000" stroke-width="0.7" stroke-miterlimit="10" stroke-dasharray="3,3" x1="194" y1="489.3" x2="276.9" y2="489.3"/>
			
				<line fill="none" stroke="#000000" stroke-width="0.7" stroke-miterlimit="10" stroke-dasharray="3,3" x1="276.9" y1="489.3" x2="359.7" y2="489.3"/>
			
				<line fill="none" stroke="#000000" stroke-width="0.7" stroke-miterlimit="10" stroke-dasharray="3,3" x1="361.4" y1="68.5" x2="361.4" y2="236.9"/>
			
				<line fill="none" stroke="#000000" stroke-width="0.7" stroke-miterlimit="10" stroke-dasharray="3,3" x1="444" y1="68" x2="444" y2="238.6"/>
			
				<line fill="none" stroke="#000000" stroke-width="0.7" stroke-miterlimit="10" stroke-dasharray="3,3" x1="362.4" y1="69.5" x2="445.3" y2="69.5"/>
			
				<line fill="none" stroke="#000000" stroke-width="0.7" stroke-miterlimit="10" stroke-dasharray="3,3" x1="529.5" y1="68" x2="529.5" y2="238.6"/>
			
				<line fill="none" stroke="#000000" stroke-width="0.7" stroke-miterlimit="10" stroke-dasharray="3,3" x1="448" y1="69.5" x2="530.9" y2="69.5"/>
			
				<line fill="none" stroke="#000000" stroke-width="0.7" stroke-miterlimit="10" stroke-dasharray="3,3" x1="530.9" y1="69.5" x2="613.8" y2="69.5"/>
			<path fill="none" stroke="#000000" stroke-width="0.7" stroke-miterlimit="10" stroke-dasharray="3,3" d="M361.1,127.8"/>
			
				<line fill="none" stroke="#000000" stroke-width="0.7" stroke-miterlimit="10" stroke-dasharray="3,3" x1="361.1" y1="152.4" x2="444" y2="152.4"/>
			
				<line fill="none" stroke="#000000" stroke-width="0.7" stroke-miterlimit="10" stroke-dasharray="3,3" x1="446.7" y1="152.4" x2="529.5" y2="152.4"/>
			
				<line fill="none" stroke="#000000" stroke-width="0.7" stroke-miterlimit="10" stroke-dasharray="3,3" x1="529.5" y1="152.4" x2="612.4" y2="152.4"/>
			
				<line fill="none" stroke="#000000" stroke-width="0.7" stroke-miterlimit="10" stroke-dasharray="3,3" x1="110" y1="68.5" x2="110" y2="236.9"/>
			
				<line fill="none" stroke="#000000" stroke-width="0.7" stroke-miterlimit="10" stroke-dasharray="3,3" x1="192.6" y1="68" x2="192.6" y2="238.6"/>
			
				<line fill="none" stroke="#000000" stroke-width="0.7" stroke-miterlimit="10" stroke-dasharray="3,3" x1="111.1" y1="69.5" x2="194" y2="69.5"/>
			
				<line fill="none" stroke="#000000" stroke-width="0.7" stroke-miterlimit="10" stroke-dasharray="3,3" x1="278.2" y1="68" x2="278.2" y2="238.6"/>
			
				<line fill="none" stroke="#000000" stroke-width="0.7" stroke-miterlimit="10" stroke-dasharray="3,3" x1="196.7" y1="69.5" x2="279.6" y2="69.5"/>
			<path fill="none" stroke="#000000" stroke-width="0.7" stroke-miterlimit="10" stroke-dasharray="3,3" d="M359.7,126.4"/>
			
				<line fill="none" stroke="#000000" stroke-width="0.7" stroke-miterlimit="10" stroke-dasharray="3,3" x1="279.6" y1="69.5" x2="362.4" y2="69.5"/>
			<path fill="none" stroke="#000000" stroke-width="0.7" stroke-miterlimit="10" stroke-dasharray="3,3" d="M109.8,127.8"/>
			
				<line fill="none" stroke="#000000" stroke-width="0.7" stroke-miterlimit="10" stroke-dasharray="3,3" x1="109.8" y1="152.4" x2="192.6" y2="152.4"/>
			
				<line fill="none" stroke="#000000" stroke-width="0.7" stroke-miterlimit="10" stroke-dasharray="3,3" x1="195.4" y1="152.4" x2="278.2" y2="152.4"/>
			
				<line fill="none" stroke="#000000" stroke-width="0.7" stroke-miterlimit="10" stroke-dasharray="3,3" x1="278.2" y1="152.4" x2="361.1" y2="152.4"/>
		</g>
	</g>
</g>
<g>
	<circle fill="#F8AB99" stroke="#000000" stroke-width="0.7" stroke-miterlimit="10" cx="192.6" cy="153.3" r="19"/>
	<ellipse stroke="#000000" stroke-width="0.7" stroke-miterlimit="10" cx="192.6" cy="153.3" rx="2" ry="2"/>
</g>
<g>
	<g>
		<line fill="none" stroke="#000000" stroke-miterlimit="10" x1="118.1" y1="502.8" x2="180.1" y2="502.8"/>
		<g>
			<path d="M120.5,502.8l3-4.9l-0.1-0.1l-8,3.1c-2.7,0.7-5.6,1.2-8.3,1.9c2.7,0.7,5.6,1.2,8.3,1.9l8,3.1l0.1-0.1L120.5,502.8z"/>
		</g>
		<g>
			<path d="M177.7,502.8l-3-4.9l0.1-0.1l8,3.1c2.7,0.7,5.6,1.2,8.3,1.9c-2.7,0.7-5.6,1.2-8.3,1.9l-8,3.1l-0.1-0.1L177.7,502.8z"/>
		</g>
	</g>
</g>
<text transform="matrix(1 0 0 1 138.5664 547.496)" font-family="'STIXGeneral-BoldItalic'" font-size="48.9057">a</text>
<g>
	<g>
		<line fill="none" stroke="#000000" stroke-miterlimit="10" x1="96.9" y1="482.9" x2="96.9" y2="418.1"/>
		<g>
			<path d="M96.9,480.4l-4.9-3l-0.1,0.1l3.1,8c0.7,2.7,1.2,5.6,1.9,8.3c0.7-2.7,1.2-5.6,1.9-8.3l3.1-8l-0.1-0.1L96.9,480.4z"/>
		</g>
		<g>
			<path d="M96.9,420.5l-4.9,3l-0.1-0.1l3.1-8c0.7-2.7,1.2-5.6,1.9-8.3c0.7,2.7,1.2,5.6,1.9,8.3l3.1,8l-0.1,0.1L96.9,420.5z"/>
		</g>
	</g>
</g>
<text transform="matrix(1 0 0 1 59.774 464.628)" font-family="'STIXGeneral-BoldItalic'" font-size="48.9057">a</text>
<circle stroke="#000000" stroke-miterlimit="10" cx="361.5" cy="238.4" r="7.5"/>
<text transform="matrix(1 0 0 1 373 226.5)" font-family="'TimesNewRomanPS-ItalicMT'" font-size="36">P</text>
</svg>
