<?xml version="1.0" encoding="utf-8"?>
<!-- Generator: Adobe Illustrator 21.1.0, SVG Export Plug-In . SVG Version: 6.00 Build 0)  -->
<svg version="1.1" id="Layer_1" xmlns="http://www.w3.org/2000/svg" xmlns:xlink="http://www.w3.org/1999/xlink" x="0px" y="0px"
	 viewBox="0 0 583 380" style="enable-background:new 0 0 583 380;" xml:space="preserve">
<style type="text/css">
	.st0{fill:none;stroke:#000000;stroke-width:0.7;stroke-miterlimit:10;}
	.st1{font-family:'STIXGeneral-Bold';}
	.st2{font-size:24px;}
	.st3{fill:none;stroke:#000000;stroke-width:1.3;stroke-miterlimit:10;}
	.st4{font-family:'STIXGeneral-BoldItalic';}
	.st5{font-size:36px;}
	.st6{font-size:19.2px;}
	.st7{fill:#F8AB99;stroke:#000000;stroke-width:0.7;stroke-miterlimit:10;}
	.st8{stroke:#000000;stroke-width:0.7;stroke-miterlimit:10;}
	.st9{fill:none;stroke:#000000;stroke-width:0.7;stroke-miterlimit:10;stroke-dasharray:3,3;}
	.st10{fill:none;stroke:#000000;stroke-miterlimit:10;}
</style>
<g>
	<g>
		<g>
			<g>
				<line class="st0" x1="491.3" y1="169" x2="545.6" y2="169"/>
				<g>
					<path d="M544.4,169l-1.5-2.5l0.1-0.1l4.1,1.6c1.4,0.3,2.9,0.6,4.3,0.9c-1.4,0.3-2.9,0.6-4.3,0.9l-4.1,1.6h-0.1L544.4,169z"/>
				</g>
			</g>
		</g>
		<g>
			<g>
				<line class="st0" x1="491.3" y1="170" x2="491.3" y2="115.7"/>
				<g>
					<path d="M491.3,117l-2.5,1.5l-0.1-0.1l1.6-4.1c0.3-1.4,0.6-2.9,0.9-4.3c0.3,1.4,0.6,2.9,0.9,4.3l1.6,4.1v0.1L491.3,117z"/>
				</g>
			</g>
		</g>
	</g>
	<g>
		<text transform="matrix(1 0 0 1 498.5 121.5143)" class="st1 st2">j</text>
		<g>
			<line class="st3" x1="497.3" y1="109.8" x2="503.2" y2="98.5"/>
			<line class="st3" x1="509.3" y1="109.8" x2="503.4" y2="98.5"/>
		</g>
	</g>
	<g>
		<text transform="matrix(1 0 0 1 548.2825 164.305)" class="st1 st2">i</text>
		<g>
			<line class="st3" x1="545.3" y1="153.7" x2="551.2" y2="142.3"/>
			<line class="st3" x1="557.3" y1="153.7" x2="551.4" y2="142.3"/>
		</g>
	</g>
</g>
<g>
	<text transform="matrix(1 0 0 1 103.5498 107.2502)" class="st4 st5">q</text>
	<text transform="matrix(1 0 0 1 115.9502 121.2498)" class="st1 st6">1</text>
</g>
<g>
	<text transform="matrix(1 0 0 1 354.0488 289.334)" class="st4 st5">q</text>
	<text transform="matrix(1 0 0 1 366.4502 303.333)" class="st1 st6">2</text>
</g>
<g>
	<circle class="st7" cx="388.8" cy="262.8" r="14"/>
	<ellipse transform="matrix(0.5 -0.866 0.866 0.5 -33.1887 468.0514)" class="st8" cx="388.8" cy="262.8" rx="1.5" ry="1.5"/>
</g>
<path class="st9" d="M357.8,131.5"/>
<path class="st9" d="M357.8,237.6"/>
<path class="st9" d="M487.8,59.6"/>
<path class="st9" d="M357.8-54.5"/>
<g>
	<line class="st9" x1="452.8" y1="18.8" x2="452.8" y2="144.4"/>
	<g>
		<line class="st9" x1="451.8" y1="139.8" x2="451.8" y2="325.4"/>
		<g>
			<line class="st9" x1="266" y1="125.2" x2="266" y2="325.1"/>
			<line class="st9" x1="266.8" y1="140.3" x2="326.8" y2="140.3"/>
			<line class="st9" x1="326.8" y1="140.8" x2="326.8" y2="326.4"/>
			<line class="st9" x1="266.8" y1="201.9" x2="327.8" y2="201.9"/>
			<line class="st9" x1="329.8" y1="140.3" x2="389.8" y2="140.3"/>
			<line class="st9" x1="389.8" y1="140.8" x2="389.8" y2="326.4"/>
			<line class="st9" x1="329.8" y1="201.9" x2="390.8" y2="201.9"/>
			<path class="st9" d="M389.8,139.8"/>
			<line class="st9" x1="390.8" y1="140.3" x2="450.8" y2="140.3"/>
			<line class="st9" x1="390.8" y1="201.9" x2="451.8" y2="201.9"/>
			<path class="st9" d="M325.8,348.8"/>
			<path class="st9" d="M265.8,244.8"/>
			<path class="st9" d="M266.8,349.9"/>
			<line class="st9" x1="265.8" y1="262.9" x2="326.8" y2="262.9"/>
			<line class="st9" x1="328.8" y1="262.9" x2="389.8" y2="262.9"/>
			<line class="st9" x1="389.8" y1="262.9" x2="450.8" y2="262.9"/>
			<line class="st9" x1="264.8" y1="324.9" x2="325.8" y2="324.9"/>
			<line class="st9" x1="327.8" y1="324.9" x2="388.8" y2="324.9"/>
			<line class="st9" x1="388.8" y1="324.9" x2="449.8" y2="324.9"/>
			<line class="st9" x1="81" y1="125.2" x2="81" y2="325.1"/>
			<line class="st9" x1="81.8" y1="140.3" x2="141.8" y2="140.3"/>
			<line class="st9" x1="141.8" y1="140.8" x2="141.8" y2="326.4"/>
			<line class="st9" x1="81.8" y1="201.9" x2="142.8" y2="201.9"/>
			<line class="st9" x1="144.8" y1="140.3" x2="204.8" y2="140.3"/>
			<line class="st9" x1="204.8" y1="140.8" x2="204.8" y2="326.4"/>
			<line class="st9" x1="144.8" y1="201.9" x2="205.8" y2="201.9"/>
			<path class="st9" d="M264.8,243.8"/>
			<path class="st9" d="M204.8,139.8"/>
			<line class="st9" x1="205.8" y1="140.3" x2="265.8" y2="140.3"/>
			<path class="st9" d="M265.8,326.4"/>
			<line class="st9" x1="205.8" y1="201.9" x2="266.8" y2="201.9"/>
			<path class="st9" d="M80.8,244.8"/>
			<line class="st9" x1="80.8" y1="262.9" x2="141.8" y2="262.9"/>
			<line class="st9" x1="143.8" y1="262.9" x2="204.8" y2="262.9"/>
			<line class="st9" x1="204.8" y1="262.9" x2="265.8" y2="262.9"/>
			<line class="st9" x1="79.8" y1="324.9" x2="140.8" y2="324.9"/>
			<line class="st9" x1="142.8" y1="324.9" x2="203.8" y2="324.9"/>
			<line class="st9" x1="203.8" y1="324.9" x2="264.8" y2="324.9"/>
			<line class="st9" x1="266" y1="15.2" x2="266" y2="139.1"/>
			<line class="st9" x1="326.8" y1="14.8" x2="326.8" y2="140.4"/>
			<line class="st9" x1="266.8" y1="15.9" x2="327.8" y2="15.9"/>
			<line class="st9" x1="389.8" y1="14.8" x2="389.8" y2="140.4"/>
			<line class="st9" x1="329.8" y1="15.9" x2="390.8" y2="15.9"/>
			<line class="st9" x1="390.8" y1="15.9" x2="451.8" y2="15.9"/>
			<path class="st9" d="M265.8,58.8"/>
			<line class="st9" x1="265.8" y1="76.9" x2="326.8" y2="76.9"/>
			<line class="st9" x1="328.8" y1="76.9" x2="389.8" y2="76.9"/>
			<line class="st9" x1="389.8" y1="76.9" x2="450.8" y2="76.9"/>
			<line class="st9" x1="81" y1="15.2" x2="81" y2="139.1"/>
			<line class="st9" x1="141.8" y1="14.8" x2="141.8" y2="140.4"/>
			<line class="st9" x1="81.8" y1="15.9" x2="142.8" y2="15.9"/>
			<line class="st9" x1="204.8" y1="14.8" x2="204.8" y2="140.4"/>
			<line class="st9" x1="144.8" y1="15.9" x2="205.8" y2="15.9"/>
			<path class="st9" d="M264.8,57.8"/>
			<line class="st9" x1="205.8" y1="15.9" x2="266.8" y2="15.9"/>
			<path class="st9" d="M80.8,58.8"/>
			<line class="st9" x1="80.8" y1="76.9" x2="141.8" y2="76.9"/>
			<line class="st9" x1="143.8" y1="76.9" x2="204.8" y2="76.9"/>
			<line class="st9" x1="204.8" y1="76.9" x2="265.8" y2="76.9"/>
		</g>
	</g>
</g>
<g>
	<circle class="st7" cx="141.8" cy="77.6" r="14"/>
	<ellipse transform="matrix(0.5 -0.866 0.866 0.5 3.6685 161.5608)" class="st8" cx="141.8" cy="77.6" rx="1.5" ry="1.5"/>
</g>
<g>
	<g>
		<line class="st10" x1="86.9" y1="334.9" x2="132.6" y2="334.9"/>
		<g>
			<path d="M88.7,334.9l2.2-3.6l-0.1-0.1l-5.9,2.3c-2,0.5-4.1,0.9-6.1,1.4c2,0.5,4.1,0.9,6.1,1.4l5.9,2.3l0.1-0.1L88.7,334.9z"/>
		</g>
		<g>
			<path d="M130.8,334.9l-2.2-3.6l0.1-0.1l5.9,2.3c2,0.5,4.1,0.9,6.1,1.4c-2,0.5-4.1,0.9-6.1,1.4l-5.9,2.3l-0.1-0.1L130.8,334.9z"/>
		</g>
	</g>
</g>
<text transform="matrix(1 0 0 1 102 367.768)" class="st4 st5">a</text>
<g>
	<g>
		<line class="st10" x1="71.3" y1="320.2" x2="71.3" y2="272.5"/>
		<g>
			<path d="M71.3,318.4l-3.6-2.2l-0.1,0.1l2.3,5.9c0.5,2,0.9,4.1,1.4,6.1c0.5-2,0.9-4.1,1.4-6.1l2.3-5.9l-0.1-0.1L71.3,318.4z"/>
		</g>
		<g>
			<path d="M71.3,274.3l-3.6,2.2l-0.1-0.1l2.3-5.9c0.5-2,0.9-4.1,1.4-6.1c0.5,2,0.9,4.1,1.4,6.1l2.3,5.9l-0.1,0.1L71.3,274.3z"/>
		</g>
	</g>
</g>
<text transform="matrix(1 0 0 1 44 306.7679)" class="st4 st5">a</text>
</svg>
