<?xml version="1.0" encoding="utf-8"?>
<!-- Generator: Adobe Illustrator 19.2.1, SVG Export Plug-In . SVG Version: 6.00 Build 0)  -->
<svg version="1.1" id="Layer_1" xmlns="http://www.w3.org/2000/svg" xmlns:xlink="http://www.w3.org/1999/xlink" x="0px" y="0px"
	 viewBox="0 0 376 224.7" style="enable-background:new 0 0 376 224.7;" xml:space="preserve">
<style type="text/css">
	.st0{fill:#F8AB99;stroke:#000000;stroke-width:0.7;stroke-miterlimit:10;}
	.st1{font-family:'STIXGeneral-BoldItalic';}
	.st2{font-size:24px;}
	.st3{font-family:'STIXGeneral-Bold';}
	.st4{font-size:12.8px;}
	.st5{fill:none;stroke:#000000;stroke-miterlimit:10;}
	.st6{font-size:18px;}
	.st7{fill:none;stroke:#000000;stroke-width:0.7;stroke-miterlimit:10;}
	.st8{font-size:19.2px;}
	.st9{fill:none;stroke:#000000;stroke-width:1.3;stroke-miterlimit:10;}
</style>
<circle class="st0" cx="82.2" cy="114.7" r="9"/>
<g>
	<text transform="matrix(1 0 0 1 59.0139 96.6665)" class="st1 st2">q</text>
	<text transform="matrix(1 0 0 1 67.281 105.9995)" class="st3 st4">1</text>
</g>
<g>
	<text transform="matrix(1 0 0 1 231.1006 51.667)" class="st1 st2">q</text>
	<text transform="matrix(1 0 0 1 239.3682 61)" class="st3 st4">2</text>
</g>
<g>
	<g>
		<line class="st5" x1="38.6" y1="33.5" x2="38" y2="220"/>
		<g>
			<path d="M38.6,35.3l3.6,2.2l0.1-0.1L40,31.5c-0.4-2-0.9-4.1-1.3-6.1c-0.5,2-0.9,4.1-1.4,6.1l-2.4,5.9l0.1,0.1L38.6,35.3z"/>
		</g>
	</g>
</g>
<g>
	<g>
		<line class="st5" x1="222.5" y1="202.3" x2="36" y2="201.7"/>
		<g>
			<path d="M220.7,202.3l-2.2,3.6l0.1,0.1l5.9-2.3c2-0.4,4.1-0.9,6.1-1.3c-2-0.5-4.1-0.9-6.1-1.4l-5.9-2.4l-0.1,0.1L220.7,202.3z"/>
		</g>
	</g>
</g>
<circle class="st0" cx="214.4" cy="69.7" r="9"/>
<text transform="matrix(1 0 0 1 234.3667 199.3333)" class="st1 st6">+x</text>
<text transform="matrix(1 0 0 1 45.6668 33.3332)" class="st1 st6">+y</text>
<g>
	<g>
		<line class="st5" x1="38.1" y1="202" x2="78.5" y2="123.3"/>
		<g>
			<path d="M77.7,124.8l-4.2,0.3V125l4.8-4.2c1.3-1.6,2.7-3.2,4-4.8c-0.5,2-1.1,4.1-1.6,6.1l-0.6,6.3l-0.1,0.1L77.7,124.8z"/>
		</g>
	</g>
</g>
<g>
	<g>
		<text transform="matrix(1 0 0 1 50.1429 139.6668)" class="st1 st2">r</text>
		<text transform="matrix(1 0 0 1 55.41 147.9998)" class="st3 st4">1</text>
	</g>
	<g>
		<g>
			<line class="st7" x1="48.1" y1="125.3" x2="57.4" y2="125.3"/>
			<g>
				<path d="M56.2,125.3l-1.5-2.5l0.1-0.1l4.1,1.6c1.4,0.3,2.9,0.6,4.3,0.9c-1.4,0.3-2.9,0.6-4.3,0.9l-4.1,1.6h-0.1L56.2,125.3z"/>
			</g>
		</g>
	</g>
</g>
<g>
	<g>
		<text transform="matrix(1 0 0 1 156.0662 133)" class="st1 st2">r</text>
		<text transform="matrix(1 0 0 1 161.3333 141.333)" class="st3 st4">2</text>
	</g>
	<g>
		<g>
			<line class="st7" x1="154.1" y1="118.7" x2="163.4" y2="118.7"/>
			<g>
				<path d="M162.1,118.7l-1.5-2.5l0.1-0.1l4.1,1.6c1.4,0.3,2.9,0.6,4.3,0.9c-1.4,0.3-2.9,0.6-4.3,0.9l-4.1,1.6h-0.1L162.1,118.7z"
					/>
			</g>
		</g>
	</g>
</g>
<path class="st7" d="M218.9,112.7"/>
<path class="st7" d="M175,112.1"/>
<g>
	<line class="st5" x1="82.2" y1="195.3" x2="82.2" y2="210.7"/>
	<line class="st5" x1="126.2" y1="196.3" x2="126.2" y2="211.7"/>
	<line class="st5" x1="170.7" y1="196.3" x2="170.7" y2="211.7"/>
	<line class="st5" x1="214.7" y1="196.3" x2="214.7" y2="211.7"/>
</g>
<g>
	<line class="st5" x1="47.6" y1="69.3" x2="32.3" y2="69.3"/>
	<line class="st5" x1="46.6" y1="113.3" x2="31.3" y2="113.3"/>
	<line class="st5" x1="46.6" y1="157.7" x2="31.3" y2="157.7"/>
	<line class="st5" x1="46.6" y1="201.7" x2="31.3" y2="201.7"/>
</g>
<g>
	<g>
		<g>
			<g>
				<line class="st7" x1="299.6" y1="161.7" x2="343" y2="161.7"/>
				<g>
					<path d="M342,161.7l-1.2-2l0.1-0.1l3.3,1.3c1.1,0.2,2.3,0.5,3.4,0.7c-1.1,0.2-2.3,0.5-3.4,0.7l-3.3,1.3h-0.1L342,161.7z"/>
				</g>
			</g>
		</g>
		<g>
			<g>
				<line class="st7" x1="299.6" y1="162.5" x2="299.6" y2="119"/>
				<g>
					<path d="M299.6,120.1l-2,1.2l-0.1-0.1l1.3-3.3c0.2-1.1,0.5-2.3,0.7-3.4c0.2,1.1,0.5,2.3,0.7,3.4l1.3,3.3v0.1L299.6,120.1z"/>
				</g>
			</g>
		</g>
	</g>
	<g>
		<text transform="matrix(1 0 0 1 305.3201 123.6848)" class="st3 st8">j</text>
		<g>
			<line class="st9" x1="304.4" y1="114.3" x2="309.1" y2="105.3"/>
			<line class="st9" x1="314" y1="114.3" x2="309.2" y2="105.3"/>
		</g>
	</g>
	<g>
		<text transform="matrix(1 0 0 1 345.1462 157.9172)" class="st3 st8">i</text>
		<g>
			<line class="st9" x1="342.8" y1="149.4" x2="347.5" y2="140.3"/>
			<line class="st9" x1="352.4" y1="149.4" x2="347.6" y2="140.3"/>
		</g>
	</g>
</g>
<g>
	<g>
		<line class="st5" x1="38.1" y1="202" x2="207.9" y2="74.2"/>
		<g>
			<path d="M206.4,75.2l-3.9-1.6v-0.1l6.1-1.7c1.9-0.9,3.8-1.7,5.7-2.6c-1.4,1.6-2.7,3.2-4.1,4.8l-3.3,5.4h-0.1L206.4,75.2z"/>
		</g>
	</g>
</g>
</svg>
