<?xml version="1.0" encoding="utf-8"?>
<!-- Generator: Adobe Illustrator 17.1.0, SVG Export Plug-In . SVG Version: 6.00 Build 0)  -->
<!DOCTYPE svg PUBLIC "-//W3C//DTD SVG 1.1//EN" "http://www.w3.org/Graphics/SVG/1.1/DTD/svg11.dtd">
<svg version="1.1" id="Layer_1" xmlns="http://www.w3.org/2000/svg" xmlns:xlink="http://www.w3.org/1999/xlink" x="0px" y="0px"
	 viewBox="0 0 792 612" enable-background="new 0 0 792 612" xml:space="preserve">
<line fill="none" stroke="#000000" stroke-miterlimit="10" x1="44.8" y1="91" x2="105.1" y2="128.5"/>
<g>
	<g>
		<g enable-background="new    ">
			<g enable-background="new    ">
				<g>
					<defs>
						<path id="SVGID_1_" d="M364.3,35.3l31.2,16.8c56.2,30.5,93.3,92.8,93.3,169.5c-0.2,119.2-90.8,229.1-201.8,244.8l-31.2-16.8
							c111-15.7,201.6-125.4,201.8-244.8C457.5,128.1,420.5,65.8,364.3,35.3z"/>
					</defs>
					<clipPath id="SVGID_2_">
						<use xlink:href="#SVGID_1_"  overflow="visible"/>
					</clipPath>
					<g clip-path="url(#SVGID_2_)" enable-background="new    ">
						<path fill="#CD5E5D" d="M286.7,466.4l-31.2-16.8c3-0.5,5.9-0.9,8.9-1.4l31.2,16.8C292.6,465.5,289.6,465.9,286.7,466.4"/>
						<path fill="#CC5E5D" d="M295.6,464.8L264.4,448c8.6-1.6,17.1-3.9,25.3-6.4l31.2,16.8C312.4,461.2,304,463.2,295.6,464.8"/>
						<path fill="#CC5E5C" d="M320.8,458.4l-31.2-16.8c4.8-1.6,9.6-3.2,14.1-5.2l31.2,16.8C330.4,455.2,325.6,456.8,320.8,458.4"/>
						<path fill="#CB5D5C" d="M334.9,453.2l-31.2-16.8c3.6-1.4,7.3-3,10.7-4.8l31.2,16.8C342.2,450.2,338.6,451.8,334.9,453.2"/>
						<path fill="#CB5D5C" d="M345.6,448.6l-31.2-16.8c3.2-1.6,6.4-3.2,9.6-4.8l31.2,16.8C352.2,445.5,349,447.1,345.6,448.6"/>
						<path fill="#CA5D5C" d="M355.2,443.9L324,427c3-1.6,5.7-3.2,8.6-4.8l31.2,16.8C361.1,440.7,358.1,442.3,355.2,443.9"/>
						<path fill="#CA5D5C" d="M363.8,439.1l-31.2-16.8c2.5-1.6,5-3,7.5-4.6l31.2,16.8C368.8,436.1,366.3,437.5,363.8,439.1"/>
						<path fill="#C95C5B" d="M371.3,434.5l-31.2-16.8c2.5-1.6,4.8-3.2,7.3-4.8l31.2,16.8C376.1,431.4,373.8,433,371.3,434.5"/>
						<path fill="#C95C5B" d="M378.6,429.5l-31.2-16.8c2.3-1.6,4.3-3.2,6.6-4.8l31.2,16.8C382.9,426.6,380.6,428.2,378.6,429.5"/>
						<path fill="#C85C5B" d="M385,425l-31.2-16.8c2-1.6,4.3-3.2,6.4-4.8l31.2,16.8C389.3,421.8,387.2,423.4,385,425"/>
						<path fill="#C85C5B" d="M391.3,420.2l-31.2-16.8c2-1.6,3.9-3.2,5.9-4.8l31.2,16.8C395.4,417,393.4,418.6,391.3,420.2"/>
						<path fill="#C75B5A" d="M397.3,415.2l-31.2-16.8c1.8-1.6,3.9-3.2,5.7-5l31.2,16.8C401.1,412,399.3,413.6,397.3,415.2"/>
						<path fill="#C75B5A" d="M402.9,410.2l-31.2-16.8c1.8-1.6,3.6-3.4,5.5-5l31.2,16.8C406.6,407,404.8,408.6,402.9,410.2"/>
						<path fill="#C65B5A" d="M408.4,405.2l-31.2-16.8c1.8-1.6,3.4-3.4,5.2-5.2l31.2,16.8C411.8,401.8,410.2,403.6,408.4,405.2"/>
						<path fill="#C65B5A" d="M413.6,400.2l-31.2-16.8c1.8-1.8,3.4-3.4,5-5.2l31.2,16.8C417,396.5,415.5,398.4,413.6,400.2"/>
						<path fill="#C55A59" d="M418.6,395l-31.2-16.8c1.6-1.8,3.2-3.6,4.8-5.5l31.2,16.8C422,391.3,420.5,393.1,418.6,395"/>
						<path fill="#C55A59" d="M423.6,389.5l-31.2-16.8c1.6-1.8,3.2-3.6,4.8-5.5l31.2,16.8C426.8,385.9,425.2,387.7,423.6,389.5"/>
						<path fill="#C45A59" d="M428.2,384L397,367.2c1.6-1.8,3.2-3.9,4.6-5.7l31.2,16.8C431.4,380.2,429.8,382.2,428.2,384"/>
						<path fill="#C35A59" d="M433,378.3l-31.2-16.8c1.6-1.8,3-3.9,4.6-5.9l31.2,16.8C435.9,374.5,434.3,376.5,433,378.3"/>
						<path fill="#C35958" d="M437.3,372.4l-31.2-16.8c1.4-2,3-4.1,4.3-5.9l31.2,16.8C440.3,368.6,438.9,370.6,437.3,372.4"/>
						<path fill="#C25958" d="M441.6,366.5l-31.2-16.8c1.4-2,3-4.1,4.3-6.1l31.2,16.8C444.6,362.4,443.2,364.5,441.6,366.5"/>
						<path fill="#C25958" d="M445.9,360.1l-31.2-16.8c1.4-2,2.7-4.3,4.1-6.4l31.2,16.8C448.7,356.1,447.3,358.1,445.9,360.1"/>
						<path fill="#C15958" d="M450,353.8l-31.2-16.8c1.4-2.3,2.7-4.6,4.1-6.8l31.2,16.8C452.8,349.2,451.4,351.5,450,353.8"/>
						<path fill="#C15857" d="M454.1,347L423,330.1c1.4-2.3,2.7-4.6,3.9-7.1l31.2,16.8C456.9,342.4,455.5,344.7,454.1,347"/>
						<path fill="#C05857" d="M458,339.9l-30.9-16.8c1.4-2.5,2.7-5,3.9-7.7l31.2,16.8C460.7,334.9,459.4,337.4,458,339.9"/>
						<path fill="#C05857" d="M462.1,332.2l-31.2-16.8c1.4-2.5,2.5-5.2,3.6-7.7l31.2,16.8C464.6,327.2,463.2,329.7,462.1,332.2"/>
						<path fill="#BF5857" d="M465.7,324.4l-31.2-16.8c1.4-3,2.7-5.9,3.9-8.9l31.2,16.8C468.5,318.5,467.1,321.5,465.7,324.4"/>
						<path fill="#BF5756" d="M469.6,315.6l-31.2-16.8c1.4-3.2,2.5-6.1,3.6-9.3l31.2,16.8C472.1,309.4,471,312.4,469.6,315.6"/>
						<path fill="#BE5756" d="M473.2,306.2l-31.2-16.8c1.4-3.6,2.5-7.3,3.6-10.9l31.2,16.8C475.7,298.9,474.6,302.6,473.2,306.2"/>
						<path fill="#BE5756" d="M476.9,295.3l-31.2-16.8c1.4-4.3,2.5-8.4,3.6-12.7l31.2,16.8C479.6,286.9,478.2,291.2,476.9,295.3"/>
						<path fill="#BD5756" d="M480.7,282.6l-31.2-16.8c1.4-5.5,2.7-10.9,3.6-16.6l31.2,16.8C483.2,271.4,482.1,277.1,480.7,282.6"/>
						<path fill="#BD5656" d="M484.4,266l-31.2-16.8c2.7-14.6,4.1-29.3,4.3-44.4c0.2-76.7-37.1-139-93.3-169.5l31.2,16.8
							c56.2,30.5,93.3,92.8,93.3,169.5C488.5,236.6,487.1,251.4,484.4,266"/>
					</g>
				</g>
			</g>
			<g enable-background="new    ">
				<g>
					<defs>
						<path id="SVGID_3_" d="M178.8,447.7l-31.2-16.8c31.2,17.1,68.3,24.1,107.8,18.7l31.2,16.8C247.1,471.9,210,464.8,178.8,447.7z
							"/>
					</defs>
					<clipPath id="SVGID_4_">
						<use xlink:href="#SVGID_3_"  overflow="visible"/>
					</clipPath>
					<g clip-path="url(#SVGID_4_)" enable-background="new    ">
						<path fill="#C95C5B" d="M178.8,447.7l-31.2-16.8c2,1.1,4.1,2.3,6.1,3.2l31.2,16.8C182.9,450,180.9,448.9,178.8,447.7"/>
						<path fill="#C95C5B" d="M185,450.9l-31.2-16.8c2.3,1.1,4.6,2,6.8,3.2l31.2,16.8C189.5,453.2,187.3,452.1,185,450.9"/>
						<path fill="#CA5D5C" d="M191.8,454.1l-31.2-16.8c2.5,1.1,5,2,7.5,3.2l31.2,16.8C196.8,456.2,194.3,455.2,191.8,454.1"/>
						<path fill="#CA5D5C" d="M199.3,457.3l-31.2-16.8c2.7,0.9,5.2,2,8,2.7l31.2,16.8C204.8,459.1,202,458.2,199.3,457.3"/>
						<path fill="#CB5D5C" d="M207.5,460l-31.2-16.8c3.2,0.9,6.4,1.8,9.6,2.7l31.2,16.8C213.7,461.8,210.7,460.9,207.5,460"/>
						<path fill="#CB5D5C" d="M217.1,462.8l-31.2-16.8c3.6,0.9,7.3,1.8,10.9,2.5l31.2,16.8C224.1,464.6,220.5,463.7,217.1,462.8"/>
						<path fill="#CC5E5C" d="M228,465.3l-31.2-17.1c4.6,0.9,9.1,1.6,13.9,2l31.2,16.8C237.1,466.6,232.5,465.9,228,465.3"/>
						<path fill="#CC5E5D" d="M241.6,467.3l-31.2-16.8c8,0.9,15.9,1.1,24.1,0.9l31.2,16.8C257.8,468.4,249.6,468,241.6,467.3"/>
						<path fill="#CD5E5D" d="M266,468.2l-31.2-16.8c6.8-0.2,13.9-0.7,20.9-1.8l31.2,16.8C279.6,467.3,272.8,468,266,468.2"/>
					</g>
				</g>
			</g>
			<g enable-background="new    ">
				<g>
					<defs>
						<path id="SVGID_5_" d="M276.9,14.8c31.9-0.9,61.7,6.4,87.4,20.2l31.2,16.8c-25.7-14.1-55.5-21.4-87.4-20.2
							C297.6,26.2,287.4,20.5,276.9,14.8z"/>
					</defs>
					<clipPath id="SVGID_6_">
						<use xlink:href="#SVGID_5_"  overflow="visible"/>
					</clipPath>
					<g clip-path="url(#SVGID_6_)" enable-background="new    ">
						<path fill="#D3B28B" d="M287.6,33.7l-31.2-17.1c7.1-0.9,13.9-1.6,20.9-1.8l31.2,16.8C301.5,32.1,294.6,32.5,287.6,33.7"/>
						<path fill="#D3B18B" d="M308.3,31.9L277.1,15c8.2-0.2,16.2,0,24.1,0.9l31.2,16.8C324.7,31.9,316.5,31.6,308.3,31.9"/>
						<path fill="#D2B18A" d="M332.4,32.8l-31.2-16.8c4.8,0.5,9.3,1.1,13.9,2l31.2,16.8C341.7,33.9,337.2,33.2,332.4,32.8"/>
						<path fill="#D2B08A" d="M346.3,34.8L315.1,18c3.6,0.7,7.3,1.6,10.9,2.5l31.2,16.8C353.8,36.2,350.2,35.5,346.3,34.8"/>
						<path fill="#D1B08A" d="M357.2,37.1L326,20.2c3.2,0.9,6.4,1.8,9.6,2.7l31.2,16.8C363.6,38.9,360.4,38,357.2,37.1"/>
						<path fill="#D1AF89" d="M366.8,39.8L335.6,23c2.7,0.9,5.5,1.8,8,2.7l31.2,16.8C372.2,41.6,369.5,40.7,366.8,39.8"/>
						<path fill="#D0AF89" d="M375,42.8l-31.2-16.8c2.5,0.9,5,2,7.5,3.2L382.5,46C380,44.8,377.5,43.7,375,42.8"/>
						<path fill="#D0AF89" d="M382.5,45.7l-31.2-16.8c2.3,0.9,4.6,2,6.8,3.2l31.2,16.8C387,47.8,384.7,46.9,382.5,45.7"/>
						<path fill="#CFAE88" d="M389.3,48.9l-31.2-16.8c2,0.9,4.1,2,6.1,3.2l31.2,16.8C393.4,51,391.3,50.1,389.3,48.9"/>
					</g>
				</g>
			</g>
			<g enable-background="new    ">
				<g>
					<defs>
						<path id="SVGID_7_" d="M256.4,16.6c6.8-0.9,13.7-1.6,20.5-1.8c10.5,5.7,20.7,11.4,31.2,16.8c-6.8,0.2-13.7,0.9-20.5,1.8
							C278.3,28.4,265.8,21.8,256.4,16.6z"/>
					</defs>
					<clipPath id="SVGID_8_">
						<use xlink:href="#SVGID_7_"  overflow="visible"/>
					</clipPath>
					<g clip-path="url(#SVGID_8_)" enable-background="new    ">
						<path fill="#D3B28B" d="M287.6,33.7l-31.2-17.1c7.1-0.9,13.9-1.6,20.9-1.8l31.2,16.8C301.5,32.1,294.6,32.5,287.6,33.7"/>
					</g>
				</g>
			</g>
			<g enable-background="new    ">
				<g>
					<defs>
						<path id="SVGID_9_" d="M365.4,33.2l31.2,16.8c-31.4-17.1-68.9-24.3-109-18.7l-31.2-16.8C296.5,8.9,333.8,16.2,365.4,33.2z"/>
					</defs>
					<clipPath id="SVGID_10_">
						<use xlink:href="#SVGID_9_"  overflow="visible"/>
					</clipPath>
					<g clip-path="url(#SVGID_10_)" enable-background="new    ">
						<path fill="#CD5E5D" d="M287.6,31.4l-31.2-16.8c7.1-0.9,14.1-1.6,21.2-1.8l31.2,16.8C301.7,29.8,294.6,30.5,287.6,31.4"/>
						<path fill="#CC5E5D" d="M308.5,29.6l-31.2-16.8c8.2-0.2,16.4,0,24.3,0.9l31.2,16.8C324.9,29.6,316.9,29.3,308.5,29.6"/>
						<path fill="#CC5E5C" d="M332.9,30.5l-30.9-16.8c4.8,0.5,9.3,1.1,14.1,2l31.2,16.8C342.4,31.6,337.6,30.9,332.9,30.5"/>
						<path fill="#CB5D5C" d="M347,32.5l-31.2-16.8c3.6,0.7,7.5,1.6,10.9,2.5L357.9,35C354.3,34.1,350.6,33.2,347,32.5"/>
						<path fill="#CB5D5C" d="M357.9,35L327,18c3.2,0.9,6.4,1.8,9.6,2.7l31.2,16.8C364.5,36.9,361.3,35.9,357.9,35"/>
						<path fill="#CA5D5C" d="M367.7,37.8l-31.2-16.8c2.7,0.9,5.5,1.8,8.2,2.7l31.2,16.8C373.1,39.6,370.4,38.7,367.7,37.8"/>
						<path fill="#CA5D5C" d="M375.6,40.7l-31.2-16.8c2.5,0.9,5,2,7.7,3.2l31.2,16.8C380.9,42.5,378.4,41.6,375.6,40.7"/>
						<path fill="#C95C5B" d="M383.4,43.7l-31.2-16.8c2.3,0.9,4.6,2,6.8,3.2l31.2,16.8C387.9,45.7,385.6,44.8,383.4,43.7"/>
						<path fill="#C95C5B" d="M390.2,46.9L359,30c2,1.1,4.1,2,6.1,3.2l31.2,16.8C394.5,48.9,392.5,48,390.2,46.9"/>
					</g>
				</g>
			</g>
			<g enable-background="new    ">
				<g>
					<defs>
						<path id="SVGID_11_" d="M54.6,261.4C54.8,142,145.4,32.3,256.4,16.6l31.2,16.8C176.3,49.1,85.8,159,85.6,278.2l0,0
							c-0.2,76.7,37.1,139,93.3,169.5l-31.2-16.8C91.7,400.4,54.4,338.1,54.6,261.4L54.6,261.4z"/>
					</defs>
					<clipPath id="SVGID_12_">
						<use xlink:href="#SVGID_11_"  overflow="visible"/>
					</clipPath>
					<g clip-path="url(#SVGID_12_)" enable-background="new    ">
						<path fill="#C3A481" d="M178.8,447.7l-31.2-16.8c-56.2-30.5-93.3-92.8-93.3-169.5c0-15,1.6-29.8,4.3-44.4l31.2,16.8
							c-2.7,14.6-4.1,29.3-4.3,44.4C85.6,354.9,122.6,417.3,178.8,447.7"/>
						<path fill="#C3A581" d="M89.9,233.9L58.7,217c1.1-5.7,2.3-11.1,3.6-16.6l31.2,16.8C92.2,222.7,91,228.4,89.9,233.9"/>
						<path fill="#C4A582" d="M93.5,217.3l-31.2-16.8c1.1-4.3,2.3-8.6,3.6-12.7l31.2,16.8C96,208.9,94.7,212.9,93.5,217.3"/>
						<path fill="#C4A582" d="M97.4,204.5l-31.2-16.8c1.1-3.6,2.5-7.3,3.6-10.9l31.2,16.8C99.7,197.3,98.5,200.9,97.4,204.5"/>
						<path fill="#C5A682" d="M101,193.6l-31.2-16.8c1.1-3.2,2.3-6.4,3.6-9.3l31.2,16.8C103.3,187.5,102.2,190.4,101,193.6"/>
						<path fill="#C5A683" d="M104.7,184.3l-31.2-16.8c1.1-3,2.5-5.9,3.9-8.9l31.2,16.8C107.2,178.4,105.8,181.3,104.7,184.3"/>
						<path fill="#C6A783" d="M108.5,175.4l-31.2-16.8c1.1-2.7,2.5-5.2,3.6-7.7l31.2,16.8C111,170.2,109.7,172.9,108.5,175.4"/>
						<path fill="#C6A783" d="M112.2,167.7L81,150.8c1.4-2.5,2.5-5.2,3.9-7.7l31.2,16.8C114.9,162.4,113.5,164.9,112.2,167.7"/>
						<path fill="#C7A884" d="M116.3,159.9l-31.2-16.8c1.4-2.3,2.5-4.8,3.9-7.1l31.2,16.8C118.8,155.2,117.4,157.7,116.3,159.9"/>
						<path fill="#C8A884" d="M120.1,152.9L89,136.1c1.4-2.3,2.7-4.6,4.1-6.8l31.2,16.8C122.9,148.3,121.5,150.6,120.1,152.9"/>
						<path fill="#C8A884" d="M124.2,146.1l-31.2-16.8c1.4-2.3,2.7-4.3,4.1-6.4l31.2,16.8C127,141.7,125.6,144,124.2,146.1"/>
						<path fill="#C9A985" d="M128.3,139.7l-31.2-17.1c1.4-2,2.7-4.1,4.3-6.1l31.2,16.8C131.1,135.4,129.7,137.6,128.3,139.7"/>
						<path fill="#C9A985" d="M132.7,133.3l-31.2-16.8c1.4-2,3-4.1,4.3-5.9l31.2,16.8C135.4,129.5,134,131.3,132.7,133.3"/>
						<path fill="#CAAA85" d="M137,127.4l-31.2-16.8c1.4-2,3-3.9,4.6-5.9l31.2,16.8C139.9,123.5,138.3,125.4,137,127.4"/>
						<path fill="#CAAA86" d="M141.3,121.5l-30.9-16.8c1.6-1.8,3-3.9,4.6-5.7l31.2,16.8C144.5,117.8,142.9,119.7,141.3,121.5"/>
						<path fill="#CBAB86" d="M146.1,115.8L114.9,99c1.6-1.8,3.2-3.6,4.8-5.5l31.2,16.8C149,112.2,147.4,114,146.1,115.8"/>
						<path fill="#CBAB86" d="M150.6,110.3l-31.2-16.8c1.6-1.8,3.2-3.6,4.8-5.5l31.2,16.8C153.8,106.7,152.2,108.5,150.6,110.3"/>
						<path fill="#CCAC87" d="M155.6,105.1L124.5,88c1.6-1.8,3.4-3.6,5-5.2l31.2,16.8C158.8,101.5,157.2,103.3,155.6,105.1"/>
						<path fill="#CCAC87" d="M160.6,99.6l-31.2-16.8c1.8-1.8,3.4-3.4,5.2-5.2l31.2,16.8C164.1,96.2,162.2,98.1,160.6,99.6"/>
						<path fill="#CDAC87" d="M165.9,94.6l-31.2-16.8c1.8-1.8,3.6-3.4,5.5-5l31.2,16.8C169.5,91.2,167.7,92.8,165.9,94.6"/>
						<path fill="#CDAD88" d="M171.3,89.6l-31.2-16.8c1.8-1.6,3.9-3.4,5.7-5L177,84.6C175,86.2,173.2,87.8,171.3,89.6"/>
						<path fill="#CEAD88" d="M177,84.6l-31.2-16.8c2-1.6,3.9-3.2,5.9-4.8l31.2,16.8C180.9,81.4,178.8,83,177,84.6"/>
						<path fill="#CFAE88" d="M182.9,79.9l-31.2-17.1c2-1.6,4.1-3.2,6.4-4.8l31.2,16.8C187,76.4,185,78,182.9,79.9"/>
						<path fill="#CFAE88" d="M189.1,74.9L157.9,58c2-1.6,4.3-3.2,6.6-4.8l31.2,16.8C193.4,71.9,191.4,73.3,189.1,74.9"/>
						<path fill="#D0AF89" d="M195.7,70.3l-31.2-16.8c2.3-1.6,4.8-3.2,7.3-4.8L203,65.5C200.5,67.1,198.2,68.7,195.7,70.3"/>
						<path fill="#D0AF89" d="M203,65.5l-31.2-16.8c2.5-1.6,5-3.2,7.5-4.6L210.5,61C208,62.3,205.5,63.9,203,65.5"/>
						<path fill="#D1AF89" d="M210.5,60.7l-31.2-16.8c2.7-1.6,5.7-3.2,8.6-4.8L219.1,56C216.2,57.6,213.2,59.2,210.5,60.7"/>
						<path fill="#D1B08A" d="M219.1,56l-31.2-16.8c3.2-1.6,6.4-3.2,9.6-4.8l31.2,16.8C225.3,52.8,222.1,54.4,219.1,56"/>
						<path fill="#D2B08A" d="M228.4,51.4l-31.2-16.8c3.6-1.6,7.1-3.2,10.7-4.8l31.2,16.8C235.7,48,232.1,49.6,228.4,51.4"/>
						<path fill="#D2B18A" d="M239.4,46.6l-31.2-16.8c4.8-1.8,9.3-3.6,14.1-5.2l31.2,16.8C248.7,43,243.9,44.8,239.4,46.6"/>
						<path fill="#D3B18B" d="M253.5,41.4l-31.2-16.8c8.2-2.7,16.6-4.8,25.3-6.4L278.7,35C270.1,36.6,261.7,38.7,253.5,41.4"/>
						<path fill="#D3B28B" d="M278.7,35l-31.2-16.8c3-0.5,5.9-0.9,8.9-1.4l31.2,16.8C284.6,33.9,281.7,34.6,278.7,35"/>
					</g>
				</g>
			</g>
			<g>
				<path fill="#E26867" d="M287.6,31.4c112.2-15.7,203.2,69.4,202.9,190c-0.2,120.6-91.7,231.4-203.8,247.1
					c-112.2,15.9-203.2-69.4-203.2-190C83.7,158.1,175.4,47.1,287.6,31.4z M286.7,466.4c111-15.7,201.6-125.4,201.8-244.8
					C488.7,102.4,398.4,18,287.4,33.4C176.3,49.1,85.8,159,85.6,278.2S175.7,481.9,286.7,466.4"/>
			</g>
			<g>
				<path fill="#EAC499" d="M287.6,33.7c111-15.7,201.3,68.7,201.1,188.2c-0.2,119.2-90.8,229.1-201.8,244.8
					c-111,15.7-201.3-68.7-201.1-188.2C85.8,159,176.3,49.1,287.6,33.7z"/>
			</g>
			<g enable-background="new    ">
				<g>
					<defs>
						<path id="SVGID_13_" d="M177.7,449.8L146.5,433C89.9,402,52.3,339.2,52.3,261.6c0.5-120.6,91.9-231.4,204.1-247.1l31.2,16.8
							C175.4,47.1,83.7,158.1,83.5,278.5C83.5,356.1,121.1,418.8,177.7,449.8z"/>
					</defs>
					<clipPath id="SVGID_14_">
						<use xlink:href="#SVGID_13_"  overflow="visible"/>
					</clipPath>
					<g clip-path="url(#SVGID_14_)" enable-background="new    ">
						<path fill="#BD5656" d="M177.7,449.8L146.5,433C89.9,402,52.3,339.2,52.3,261.6c0-15,1.6-30,4.3-44.8l31.2,16.8
							c-2.7,14.6-4.3,29.6-4.3,44.8C83.5,356.1,121.1,418.8,177.7,449.8"/>
						<path fill="#BD5756" d="M87.8,233.9L56.7,217c1.1-5.7,2.3-11.1,3.9-16.8L91.7,217C90.1,222.5,89,228.2,87.8,233.9"/>
						<path fill="#BE5756" d="M91.7,217l-31.2-16.8c1.1-4.3,2.3-8.6,3.6-13l31.2,16.8C94,208.4,92.8,212.7,91.7,217"/>
						<path fill="#BE5756" d="M95.3,204.1l-31.2-16.8c1.1-3.6,2.5-7.3,3.6-10.9L99,193.2C97.8,196.8,96.5,200.4,95.3,204.1"/>
						<path fill="#BF5756" d="M99.2,193.2L68,176.3c1.1-3.2,2.5-6.4,3.6-9.6l31.2,16.8C101.5,186.8,100.4,190,99.2,193.2"/>
						<path fill="#BF5857" d="M102.9,183.6l-31.2-16.8c1.1-3,2.5-5.9,3.9-8.9l31.2,16.8C105.4,177.7,104,180.6,102.9,183.6"/>
						<path fill="#C05857" d="M106.7,174.7l-31.2-16.8c1.1-2.7,2.5-5.2,3.9-8l31.2,16.8C109.2,169.5,107.9,172,106.7,174.7"/>
						<path fill="#C05857" d="M110.4,166.8l-31.2-16.8c1.4-2.5,2.7-5.2,4.1-7.7l31.2,16.8C113.1,161.5,111.7,164.3,110.4,166.8"/>
						<path fill="#C15857" d="M114.5,159l-31.2-16.8c1.4-2.3,2.5-4.8,3.9-7.1l31.2,16.8C117,154.3,115.8,156.5,114.5,159"/>
						<path fill="#C15958" d="M118.3,152l-31.2-16.8c1.4-2.3,2.7-4.6,4.1-6.8l31.2,16.8C121.1,147.4,119.7,149.7,118.3,152"/>
						<path fill="#C25958" d="M122.6,144.9l-31.2-16.8c1.4-2.3,2.7-4.3,4.1-6.6l31.2,17.1C125.4,140.6,124,142.9,122.6,144.9"/>
						<path fill="#C25958" d="M126.7,138.6l-31.2-16.8c1.4-2,2.7-4.3,4.3-6.4l31.2,16.8C129.5,134.2,128.1,136.5,126.7,138.6"/>
						<path fill="#C35958" d="M131.1,132.2l-31.2-16.8c1.4-2,3-4.1,4.3-6.1l31.2,16.8C134,128.1,132.4,130.1,131.1,132.2"/>
						<path fill="#C35A59" d="M135.4,126l-31.2-16.8c1.4-2,3-3.9,4.6-5.9l31.2,16.8C138.3,122.2,137,124.2,135.4,126"/>
						<path fill="#C45A59" d="M139.9,120.4l-31.2-16.8c1.6-1.8,3.2-3.9,4.6-5.7l31.2,16.8C142.9,116.5,141.5,118.3,139.9,120.4"/>
						<path fill="#C55A59" d="M144.5,114.4l-31.2-16.8c1.6-1.8,3.2-3.6,4.8-5.5l31.2,16.8C147.7,110.8,146.1,112.6,144.5,114.4"/>
						<path fill="#C55A59" d="M149.3,109l-31.2-16.8c1.6-1.8,3.2-3.6,5-5.5l31.2,16.8C152.7,105.3,150.9,107.2,149.3,109"/>
						<path fill="#C65B5A" d="M154.3,103.5l-31.2-16.8c1.6-1.8,3.4-3.6,5-5.2l31.2,16.8C157.7,99.9,155.9,101.7,154.3,103.5"/>
						<path fill="#C65B5A" d="M159.3,98.3l-31.2-16.8c1.8-1.8,3.4-3.4,5.2-5.2l31.2,16.8C162.9,94.9,161.1,96.5,159.3,98.3"/>
						<path fill="#C75B5A" d="M164.5,93.1l-30.9-16.8c1.8-1.8,3.6-3.4,5.5-5L170.2,88C168.4,89.6,166.3,91.2,164.5,93.1"/>
						<path fill="#C75B5A" d="M170.2,88L139,71.2c1.8-1.6,3.9-3.4,5.7-5L175.9,83C173.8,84.6,172,86.2,170.2,88"/>
						<path fill="#C85C5B" d="M175.9,83L144.7,66c2-1.6,3.9-3.2,5.9-4.8L181.8,78C179.8,79.6,177.9,81.2,175.9,83"/>
						<path fill="#C85C5B" d="M181.8,78l-31.2-16.8c2-1.6,4.3-3.4,6.4-5l31.2,17.1C186.1,74.9,183.8,76.4,181.8,78"/>
						<path fill="#C95C5B" d="M188.2,73.3L157,56.4c2.3-1.6,4.3-3.2,6.6-4.8l31.2,16.8C192.5,70.1,190.4,71.7,188.2,73.3"/>
						<path fill="#C95C5B" d="M194.8,68.5l-31.2-16.8c2.5-1.6,4.8-3.2,7.3-4.8L202,63.7C199.5,65.1,197.3,66.9,194.8,68.5"/>
						<path fill="#CA5D5C" d="M202,63.7l-31.2-16.8c2.5-1.6,5-3.2,7.5-4.6l31.2,16.8C207.1,60.5,204.6,61.9,202,63.7"/>
						<path fill="#CA5D5C" d="M209.8,58.9l-31.2-16.8c3-1.6,5.7-3.2,8.6-4.8l31.2,16.8C215.5,55.7,212.5,57.3,209.8,58.9"/>
						<path fill="#CB5D5C" d="M218.4,54.1l-31.2-16.8c3.2-1.6,6.4-3.2,9.6-4.8L228,49.4C224.8,50.7,221.6,52.3,218.4,54.1"/>
						<path fill="#CB5D5C" d="M228,49.4l-31.2-16.8c3.6-1.6,7.3-3.2,10.9-4.8l31.2,16.8C235,46,231.6,47.5,228,49.4"/>
						<path fill="#CC5E5C" d="M238.7,44.6l-31.2-16.8c4.8-1.8,9.6-3.6,14.3-5.2L253,39.4C248.2,41,243.5,42.8,238.7,44.6"/>
						<path fill="#CC5E5D" d="M253.2,39.4l-31.2-16.8c8.4-2.7,16.8-4.8,25.5-6.6l31.2,16.8C270.1,34.4,261.4,36.6,253.2,39.4"/>
						<path fill="#CD5E5D" d="M278.7,32.8l-31.2-16.8c3-0.5,5.9-1.1,8.9-1.4l31.2,16.8C284.6,31.9,281.7,32.3,278.7,32.8"/>
					</g>
				</g>
			</g>
		</g>
	</g>
</g>
<g>
	<g>
		<g enable-background="new    ">
			<g enable-background="new    ">
				<g>
					<defs>
						<path id="SVGID_15_" d="M210.7,374.5l-1.1-0.5c19.3,10.5,42.3,15,66.9,11.6l1.1,0.5C253,389.5,230,385.2,210.7,374.5z"/>
					</defs>
					<clipPath id="SVGID_16_">
						<use xlink:href="#SVGID_15_"  overflow="visible"/>
					</clipPath>
					<g clip-path="url(#SVGID_16_)" enable-background="new    ">
						<path fill="#A54A49" d="M210.7,374.5l-1.1-0.5c1.4,0.7,2.5,1.4,3.9,2l1.1,0.5C213.2,375.8,211.8,375.2,210.7,374.5"/>
						<path fill="#A84C4B" d="M214.6,376.5l-1.1-0.5c6.4,3.2,13,5.5,19.8,7.3l1.1,0.5C227.3,382,220.7,379.5,214.6,376.5"/>
						<path fill="#AC4E4D" d="M234.4,383.8l-1.1-0.5c13.4,3.4,28,4.3,43.2,2.3l1.1,0.5C262.3,388.1,247.8,387.2,234.4,383.8"/>
					</g>
				</g>
			</g>
			<g enable-background="new    ">
				<g>
					<defs>
						<path id="SVGID_17_" d="M344,126l1.1,0.5c35,19.1,58.5,58.2,58.2,106.2c-0.2,74.6-56.6,143.3-125.8,153.1l-1.1-0.5
							c69.2-9.8,125.6-78.5,125.8-153.1C402.5,184.3,379.1,145.2,344,126z"/>
					</defs>
					<clipPath id="SVGID_18_">
						<use xlink:href="#SVGID_17_"  overflow="visible"/>
					</clipPath>
					<g clip-path="url(#SVGID_18_)" enable-background="new    ">
						<path fill="#AC4E4D" d="M277.6,386.1l-1.1-0.5c12.7-1.8,25-5.5,36.6-10.9l1.1,0.5C302.6,380.4,290.3,384.3,277.6,386.1"/>
						<path fill="#A84C4B" d="M314.2,375.2l-1.1-0.5c7.1-3.4,13.9-7.3,20.5-11.8l1.1,0.5C328.1,367.9,321.3,371.8,314.2,375.2"/>
						<path fill="#A54A49" d="M334.7,363.3l-1.1-0.5c5.2-3.6,10.5-7.7,15.2-12.1l1.1,0.5C344.9,355.6,339.9,359.7,334.7,363.3"/>
						<path fill="#A14847" d="M349.7,351.3l-1.1-0.5c4.6-4.1,8.9-8.4,12.7-13l1.1,0.5C358.6,342.9,354.3,347.2,349.7,351.3"/>
						<path fill="#9D4645" d="M362.7,338.3l-1.1-0.5c4.1-4.6,7.7-9.3,11.4-14.3l1.1,0.5C370.4,329,366.8,333.8,362.7,338.3"/>
						<path fill="#994443" d="M374,324l-1.1-0.5c3.6-5.2,7.1-10.9,10.2-16.6l1.1,0.5C381.1,313.1,377.7,318.5,374,324"/>
						<path fill="#954241" d="M384.3,307.4l-1.1-0.5c3.6-6.8,6.8-13.9,9.6-21.2l1.1,0.5C391.1,293.5,387.9,300.5,384.3,307.4"/>
						<path fill="#91403F" d="M393.8,286.2l-1.1-0.5c6.1-16.8,9.6-34.8,9.6-53.2c0-48.2-23.2-87.1-58.2-106.2l1.1,0.5
							c35,19.1,58.5,58.2,58.2,106.2C403.4,251.2,400,269.4,393.8,286.2"/>
					</g>
				</g>
			</g>
			<g enable-background="new    ">
				<g>
					<defs>
						<path id="SVGID_19_" d="M277.1,114.4c24.6-3.4,47.5,0.9,66.9,11.6l1.1,0.5c-19.3-10.5-42.3-15-66.9-11.6
							C277.8,114.9,277.4,114.7,277.1,114.4z"/>
					</defs>
					<clipPath id="SVGID_20_">
						<use xlink:href="#SVGID_19_"  overflow="visible"/>
					</clipPath>
					<g clip-path="url(#SVGID_20_)" enable-background="new    ">
						<path fill="#608F2B" d="M278,115.1l-1.1-0.5c15.2-2,29.8-1.4,43.2,2.3l1.1,0.5C307.8,113.8,293.3,112.8,278,115.1"/>
						<path fill="#5E8B2A" d="M321.3,117.2l-1.1-0.5c6.8,1.8,13.7,4.3,19.8,7.3l1.1,0.5C334.9,121.5,328.3,119,321.3,117.2"/>
						<path fill="#5B8829" d="M341.3,124.7l-1.1-0.5c1.4,0.7,2.5,1.4,3.9,2l1.1,0.5C343.8,125.8,342.4,125.1,341.3,124.7"/>
					</g>
				</g>
			</g>
			<g enable-background="new    ">
				<g>
					<defs>
						<path id="SVGID_21_" d="M345.2,124l1.1,0.5c-19.8-10.7-43-15.2-68-11.8l-1.1-0.5C302.2,108.7,325.4,113.3,345.2,124z"/>
					</defs>
					<clipPath id="SVGID_22_">
						<use xlink:href="#SVGID_21_"  overflow="visible"/>
					</clipPath>
					<g clip-path="url(#SVGID_22_)" enable-background="new    ">
						<path fill="#AC4E4D" d="M278,112.8l-1.1-0.5c15.5-2.3,30.3-1.4,43.9,2.3l1.1,0.5C308.3,111.5,293.5,110.8,278,112.8"/>
						<path fill="#A84C4B" d="M322.2,115.1l-1.1-0.5c7.1,1.8,13.9,4.3,20.2,7.5l1.1,0.5C335.8,119.4,329,116.9,322.2,115.1"/>
						<path fill="#A54A49" d="M342.2,122.6l-1.1-0.5c1.4,0.7,2.5,1.4,3.9,2l1.1,0.5C344.9,124,343.6,123.3,342.2,122.6"/>
					</g>
				</g>
			</g>
			<g enable-background="new    ">
				<g>
					<defs>
						<path id="SVGID_23_" d="M243.5,124.2c10.7-4.8,22.1-8,33.7-9.6l1.1,0.5c-11.6,1.6-23,5-33.7,9.6
							C244.1,124.4,243.7,124.4,243.5,124.2z"/>
					</defs>
					<clipPath id="SVGID_24_">
						<use xlink:href="#SVGID_23_"  overflow="visible"/>
					</clipPath>
					<g clip-path="url(#SVGID_24_)" enable-background="new    ">
						<path fill="#608F2B" d="M241.4,126l-0.9-0.5c11.6-5.5,23.9-9.1,36.6-10.9l1.1,0.5C265.3,116.9,253,120.6,241.4,126"/>
					</g>
				</g>
			</g>
			<g enable-background="new    ">
				<g>
					<defs>
						<path id="SVGID_25_" d="M151.3,267.6c0-62.1,39.1-120.1,92.1-143.3c0.2,0.2,0.7,0.5,0.9,0.7c-53,23.4-92.1,81.4-92.1,143.6
							c0,48.2,23.2,87.1,58.2,106.2l-1.1-0.5C174.5,354.9,151.1,315.8,151.3,267.6z"/>
					</defs>
					<clipPath id="SVGID_26_">
						<use xlink:href="#SVGID_25_"  overflow="visible"/>
					</clipPath>
					<g clip-path="url(#SVGID_26_)" enable-background="new    ">
						<path fill="#4E7822" d="M210.7,374.5l-1.1-0.5c-35-19.1-58.5-58.2-58.2-106.5c0-18.4,3.4-36.4,9.6-53.2l1.1,0.5
							c-6.1,16.8-9.6,34.8-9.6,53.2C152.2,316.5,175.4,355.4,210.7,374.5"/>
						<path fill="#517C23" d="M162,215l-1.1-0.7c2.7-7.3,5.9-14.3,9.6-21.2l1.1,0.5C167.9,200.7,164.7,207.7,162,215"/>
						<path fill="#537F24" d="M171.6,193.8l-1.1-0.5c3.2-5.7,6.6-11.4,10.2-16.6l1.1,0.5C177.9,182.5,174.5,188.2,171.6,193.8"/>
						<path fill="#568226" d="M181.8,177.2l-1.1-0.5c3.4-5,7.3-9.8,11.4-14.3l1.1,0.5C189.1,167.4,185.2,172.2,181.8,177.2"/>
						<path fill="#588527" d="M193.2,162.9l-1.1-0.5c4.1-4.6,8.4-8.9,12.7-13l1.1,0.5C201.4,153.8,197,158.1,193.2,162.9"/>
						<path fill="#5B8829" d="M205.9,149.9l-1.1-0.5c4.8-4.3,10-8.4,15.2-12.1l1.1,0.5C215.9,141.5,210.7,145.6,205.9,149.9"/>
						<path fill="#5E8B2A" d="M221.2,137.9l-1.1-0.7c6.6-4.6,13.4-8.4,20.5-11.8l1.1,0.5C234.4,129.5,227.5,133.3,221.2,137.9"/>
						<path fill="#608F2B" d="M241.4,126l-0.9-0.5c11.6-5.5,23.9-9.1,36.6-10.9l1.1,0.5C265.3,116.9,253,120.6,241.4,126"/>
					</g>
				</g>
			</g>
			<g>
				<path fill="#7CB138" d="M278,115.1c69.2-9.8,125.4,43.2,125.4,117.8c-0.2,74.6-56.6,143.3-125.8,153.1s-125.4-43.2-125.4-117.8
					C152.5,193.4,208.9,124.7,278,115.1z"/>
			</g>
			<g enable-background="new    ">
				<g>
					<defs>
						<path id="SVGID_27_" d="M209.6,376.5l-1.1-0.5C172.7,356.7,149,316.9,149,268c0.2-76,57.6-145.8,127.9-155.6l1.1,0.5
							c-70.3,10-127.6,79.6-127.9,155.6C150.2,317.4,173.8,357.2,209.6,376.5z"/>
					</defs>
					<clipPath id="SVGID_28_">
						<use xlink:href="#SVGID_27_"  overflow="visible"/>
					</clipPath>
					<g clip-path="url(#SVGID_28_)" enable-background="new    ">
						<path fill="#91403F" d="M209.6,376.5l-1.1-0.5C172.7,356.7,149,316.9,149,268c0-18.7,3.4-36.9,9.8-54.1l1.1,0.5
							c-6.4,17.1-9.8,35.5-9.8,54.1C150.2,317.4,173.8,357.2,209.6,376.5"/>
						<path fill="#954241" d="M160.2,214.3l-1.1-0.5c2.7-7.5,5.9-14.6,9.8-21.4l1.1,0.5C166.1,199.8,162.9,207,160.2,214.3"/>
						<path fill="#994443" d="M169.7,192.9l-1.1-0.5c3.2-5.9,6.6-11.6,10.5-16.8l1.1,0.5C176.3,181.3,172.9,187,169.7,192.9"/>
						<path fill="#9D4645" d="M180.2,176.1l-1.1-0.7c3.6-5,7.5-10,11.6-14.6l1.1,0.5C187.7,166.1,183.8,170.9,180.2,176.1"/>
						<path fill="#A14847" d="M191.8,161.3l-1.1-0.5c4.1-4.6,8.4-9.1,13-13.2l1.1,0.5C200.2,152.4,195.9,156.8,191.8,161.3"/>
						<path fill="#A54A49" d="M204.8,148.1l-1.1-0.5c5-4.3,10-8.4,15.5-12.3l1.1,0.5C214.8,139.7,209.6,143.8,204.8,148.1"/>
						<path fill="#A84C4B" d="M220.2,136.1l-1.1-0.5c6.6-4.6,13.4-8.6,20.7-12.1l1.1,0.5C233.7,127.4,226.8,131.5,220.2,136.1"/>
						<path fill="#AC4E4D" d="M241,124l-1.1-0.5c11.8-5.5,24.3-9.3,37.1-11.1l1.1,0.5C265.1,114.7,252.8,118.5,241,124"/>
					</g>
				</g>
			</g>
			<g>
				<path fill="#D66361" d="M278,112.8c70.3-9.8,127.4,43.9,127.4,119.7c-0.2,76-57.6,145.8-127.9,155.6
					c-70.3,9.8-127.4-43.9-127.4-119.7C150.4,192.5,207.7,122.9,278,112.8z M277.6,386.1c69.2-9.8,125.6-78.5,125.8-153.1
					c0.2-74.6-56-127.6-125.4-117.8c-69.2,9.6-125.6,78.3-125.8,153.1C152.2,342.9,208.4,395.9,277.6,386.1"/>
			</g>
		</g>
	</g>
</g>
<g>
	<g>
		<g enable-background="new    ">
			<g enable-background="new    ">
				<g>
					<defs>
						<path id="SVGID_29_" d="M230.5,346.5l-1.1-0.5c14.6,8,31.6,11.1,50.1,8.6l1.1,0.5C262.1,357.9,245,354.5,230.5,346.5z"/>
					</defs>
					<clipPath id="SVGID_30_">
						<use xlink:href="#SVGID_29_"  overflow="visible"/>
					</clipPath>
					<g clip-path="url(#SVGID_30_)" enable-background="new    ">
						<path fill="#A54A49" d="M230.5,346.5l-1.1-0.5c0.9,0.5,1.8,0.9,3,1.6l1.1,0.5C232.3,347.6,231.4,347.2,230.5,346.5"/>
						<path fill="#A84C4B" d="M233.2,348.1l-1.1-0.5c4.8,2.3,9.8,4.1,14.8,5.5l1.1,0.5C243,352.2,238,350.4,233.2,348.1"/>
						<path fill="#AC4E4D" d="M248.2,353.5l-1.1-0.5c10,2.5,20.9,3.2,32.3,1.6l1.1,0.5C269.2,356.7,258.2,356.3,248.2,353.5"/>
					</g>
				</g>
			</g>
			<g enable-background="new    ">
				<g>
					<defs>
						<path id="SVGID_31_" d="M329.9,160.6l1.1,0.5c26.2,14.3,43.7,43.5,43.7,79.6c0,56-42.3,107.2-94.2,114.4l-1.1-0.5
							c51.9-7.3,94-58.7,94.2-114.4C373.6,204.1,356.3,175,329.9,160.6z"/>
					</defs>
					<clipPath id="SVGID_32_">
						<use xlink:href="#SVGID_31_"  overflow="visible"/>
					</clipPath>
					<g clip-path="url(#SVGID_32_)" enable-background="new    ">
						<path fill="#AC4E4D" d="M280.5,355.1l-1.1-0.5c9.6-1.4,18.7-4.1,27.3-8.2l1.1,0.5C299.2,351,290.1,354,280.5,355.1"/>
						<path fill="#A84C4B" d="M307.8,347l-1.1-0.5c5.2-2.5,10.5-5.5,15.2-8.9l1.1,0.5C318.3,341.5,313.3,344.4,307.8,347"/>
						<path fill="#A54A49" d="M323.1,338.3l-1.1-0.5c3.9-2.7,7.7-5.7,11.4-9.1l1.1,0.5C330.8,332.4,327.2,335.6,323.1,338.3"/>
						<path fill="#A14847" d="M334.5,329.2l-1.1-0.5c3.4-3,6.6-6.4,9.6-9.8l1.1,0.5C341.1,322.8,337.9,326.2,334.5,329.2"/>
						<path fill="#9D4645" d="M344.2,319.4l-1.1-0.5c3-3.4,5.9-7.1,8.4-10.7l1.1,0.5C349.9,312.6,347.2,316,344.2,319.4"/>
						<path fill="#994443" d="M352.7,308.7l-1.1-0.5c2.7-3.9,5.5-8.2,7.7-12.5l1.1,0.5C357.9,300.5,355.4,304.9,352.7,308.7"/>
						<path fill="#954241" d="M360.2,296.2l-1.1-0.5c2.7-5,5.2-10.5,7.1-15.9l1.1,0.5C365.4,286,362.9,291.2,360.2,296.2"/>
						<path fill="#91403F" d="M367.4,280.5l-1.1-0.5c4.6-12.5,7.3-26.2,7.3-39.8c0-35.9-17.3-65.3-43.7-79.6l1.1,0.5
							c26.2,14.3,43.7,43.5,43.7,79.6C374.5,254.4,372,268,367.4,280.5"/>
					</g>
				</g>
			</g>
			<g enable-background="new    ">
				<g>
					<defs>
						<path id="SVGID_33_" d="M229.3,346c-0.7-0.5-1.6-0.9-2.3-1.4c0.5,0.2,0.7,0.5,1.1,0.5c0.7,0.5,1.6,0.9,2.3,1.4
							C230,346.5,229.8,346.3,229.3,346z"/>
					</defs>
					<clipPath id="SVGID_34_">
						<use xlink:href="#SVGID_33_"  overflow="visible"/>
					</clipPath>
					<g clip-path="url(#SVGID_34_)" enable-background="new    ">
						<path fill="#957E63" d="M230.5,346.5l-1.1-0.5c-26.2-14.3-43.7-43.5-43.7-79.4c0-13.7,2.5-27.3,7.3-39.8l1.1,0.5
							c-4.6,12.5-7.3,26.2-7.3,39.8C186.8,303,204.1,332.4,230.5,346.5"/>
					</g>
				</g>
			</g>
			<g enable-background="new    ">
				<g>
					<defs>
						<path id="SVGID_35_" d="M227.1,344.7c-5-3-9.6-6.4-13.9-10.5c0.5,0.2,0.7,0.5,1.1,0.5c4.3,4.1,8.9,7.5,13.9,10.5
							C227.8,345.1,227.5,344.9,227.1,344.7z"/>
					</defs>
					<clipPath id="SVGID_36_">
						<use xlink:href="#SVGID_35_"  overflow="visible"/>
					</clipPath>
					<g clip-path="url(#SVGID_36_)" enable-background="new    ">
						<path fill="#957E63" d="M230.5,346.5l-1.1-0.5c-26.2-14.3-43.7-43.5-43.7-79.4c0-13.7,2.5-27.3,7.3-39.8l1.1,0.5
							c-4.6,12.5-7.3,26.2-7.3,39.8C186.8,303,204.1,332.4,230.5,346.5"/>
					</g>
				</g>
			</g>
			<g enable-background="new    ">
				<g>
					<defs>
						<path id="SVGID_37_" d="M279.9,152c18.4-2.5,35.5,0.7,50.1,8.6l1.1,0.5c-14.6-8-31.6-11.1-50.1-8.6
							C280.5,152.4,280.1,152.2,279.9,152z"/>
					</defs>
					<clipPath id="SVGID_38_">
						<use xlink:href="#SVGID_37_"  overflow="visible"/>
					</clipPath>
					<g clip-path="url(#SVGID_38_)" enable-background="new    ">
						<path fill="#B19676" d="M281,152.4l-1.1-0.5c11.4-1.6,22.3-0.9,32.3,1.6l1.1,0.5C303.3,151.5,292.4,150.8,281,152.4"/>
						<path fill="#AD9273" d="M313.3,154.3l-1.1-0.5c5.2,1.4,10.2,3.2,14.8,5.5l1.1,0.5C323.5,157.4,318.5,155.6,313.3,154.3"/>
						<path fill="#A98F70" d="M328.1,159.7l-1.1-0.5c0.9,0.5,1.8,0.9,3,1.6l1.1,0.5C330.1,160.6,329,160.2,328.1,159.7"/>
					</g>
				</g>
			</g>
			<g enable-background="new    ">
				<g>
					<defs>
						<path id="SVGID_39_" d="M331,158.6l1.1,0.5c-14.8-8-32.3-11.4-51.2-8.9l-1.1-0.5C298.7,147.2,316.3,150.6,331,158.6z"/>
					</defs>
					<clipPath id="SVGID_40_">
						<use xlink:href="#SVGID_39_"  overflow="visible"/>
					</clipPath>
					<g clip-path="url(#SVGID_40_)" enable-background="new    ">
						<path fill="#AC4E4D" d="M281,150.4l-1.1-0.5c11.6-1.6,22.8-0.9,33,1.6l1.1,0.5C303.7,149.5,292.6,148.8,281,150.4"/>
						<path fill="#A84C4B" d="M314,152l-1.1-0.5c5.2,1.4,10.5,3.2,15.2,5.7l1.1,0.5C324.4,155.4,319.2,153.3,314,152"/>
						<path fill="#A54A49" d="M329.2,157.7l-1.1-0.5c0.9,0.5,2,0.9,3,1.6l1.1,0.5C331,158.6,330.1,158.1,329.2,157.7"/>
					</g>
				</g>
			</g>
			<g enable-background="new    ">
				<g>
					<defs>
						<path id="SVGID_41_" d="M185.7,266.6c0-56,42.3-107.4,94.2-114.7l1.1,0.5c-51.9,7.3-94,58.7-94.2,114.7
							c0,28,10.5,51.9,27.3,67.8c-0.5-0.2-0.7-0.5-1.1-0.5C196.1,318.3,185.7,294.4,185.7,266.6z"/>
					</defs>
					<clipPath id="SVGID_42_">
						<use xlink:href="#SVGID_41_"  overflow="visible"/>
					</clipPath>
					<g clip-path="url(#SVGID_42_)" enable-background="new    ">
						<path fill="#957E63" d="M230.5,346.5l-1.1-0.5c-26.2-14.3-43.7-43.5-43.7-79.4c0-13.7,2.5-27.3,7.3-39.8l1.1,0.5
							c-4.6,12.5-7.3,26.2-7.3,39.8C186.8,303,204.1,332.4,230.5,346.5"/>
						<path fill="#998166" d="M194.1,227.3l-1.1-0.5c2-5.5,4.3-10.7,7.1-15.9l1.1,0.5C198.4,216.6,196.1,221.8,194.1,227.3"/>
						<path fill="#9D8568" d="M201.1,211.4l-1.1-0.5c2.3-4.3,4.8-8.4,7.7-12.5l1.1,0.5C206.1,202.9,203.4,207.3,201.1,211.4"/>
						<path fill="#A1886B" d="M208.9,199.1l-1.1-0.5c2.7-3.6,5.5-7.3,8.4-10.7l1.1,0.5C214.3,191.8,211.4,195.2,208.9,199.1"/>
						<path fill="#A58C6E" d="M217.3,188.4l-1.1-0.5c3-3.4,6.1-6.6,9.6-9.8l1.1,0.5C223.4,181.6,220.2,184.7,217.3,188.4"/>
						<path fill="#A98F70" d="M226.8,178.6l-1.1-0.5c3.6-3.2,7.5-6.4,11.4-9.1l1.1,0.5C234.4,172.2,230.5,175.4,226.8,178.6"/>
						<path fill="#AD9273" d="M238.2,169.5l-1.1-0.5c4.8-3.4,10-6.4,15.2-8.9l1.1,0.5C248.2,163.4,243.2,166.3,238.2,169.5"/>
						<path fill="#B19676" d="M253.5,160.8l-1.1-0.5c8.6-4.1,17.7-6.8,27.3-8.2l1.1,0.5C271.4,153.8,262.1,156.8,253.5,160.8"/>
					</g>
				</g>
			</g>
			<g enable-background="new    ">
				<g>
					<defs>
						<path id="SVGID_43_" d="M229.3,348.5l-1.1-0.5c-26.8-14.6-44.6-44.4-44.6-81.2c0-57.1,43.2-109.7,96.2-116.9l1.1,0.5
							c-53,7.5-96,59.8-96.2,116.9C184.8,304.2,202.5,334,229.3,348.5z"/>
					</defs>
					<clipPath id="SVGID_44_">
						<use xlink:href="#SVGID_43_"  overflow="visible"/>
					</clipPath>
					<g clip-path="url(#SVGID_44_)" enable-background="new    ">
						<path fill="#91403F" d="M229.3,348.5l-1.1-0.5c-26.8-14.6-44.6-44.4-44.6-81.2c0-14.1,2.7-27.8,7.3-40.7l1.1,0.5
							c-4.8,13-7.3,26.6-7.3,40.7C184.8,304.2,202.5,334,229.3,348.5"/>
						<path fill="#954241" d="M192.3,226.6l-1.1-0.5c2-5.5,4.6-10.9,7.3-16.2l1.1,0.5C196.6,215.7,194.3,221.1,192.3,226.6"/>
						<path fill="#994443" d="M199.5,210.4l-1.1-0.5c2.3-4.3,5-8.6,7.7-12.7l1.1,0.5C204.3,201.8,201.8,206.1,199.5,210.4"/>
						<path fill="#9D4645" d="M207.3,197.9l-1.1-0.5c2.7-3.9,5.7-7.5,8.6-10.9l1.1,0.5C213,190.4,210,194.1,207.3,197.9"/>
						<path fill="#A14847" d="M215.9,186.8l-1.1-0.5c3.2-3.4,6.4-6.8,9.8-10l1.1,0.5C222.3,180,219.1,183.4,215.9,186.8"/>
						<path fill="#A54A49" d="M225.7,177l-1.1-0.5c3.6-3.4,7.5-6.4,11.6-9.1l1.1,0.5C233.2,170.6,229.3,173.6,225.7,177"/>
						<path fill="#A84C4B" d="M237.3,167.7l-1.1-0.5c5-3.4,10.2-6.4,15.7-9.1l1.1,0.5C247.6,161.3,242.3,164.3,237.3,167.7"/>
						<path fill="#AC4E4D" d="M253,158.8l-1.1-0.5c8.9-4.1,18.2-7.1,28-8.4l1.1,0.5C271.2,151.7,261.9,154.7,253,158.8"/>
					</g>
				</g>
			</g>
			<g>
				<path fill="#D66361" d="M281,150.4c52.8-7.5,95.8,33,95.8,90.1s-43.2,109.7-96.2,116.9c-53,7.5-95.8-33-95.8-90.1
					C185,210.2,228,157.9,281,150.4z M280.5,355.1c51.9-7.3,94-58.7,94.2-114.4c0-56-41.9-95.6-93.7-88.3
					c-51.9,7.3-94,58.7-94.2,114.7C186.8,323.1,228.7,362.4,280.5,355.1"/>
			</g>
			<g>
				<path fill="#DEBA91" d="M281,152.4c51.9-7.3,93.7,32.3,93.7,88.3s-42.3,107.2-94.2,114.4s-93.7-32.3-93.7-88
					C187,211.1,229.1,159.7,281,152.4z"/>
			</g>
		</g>
	</g>
</g>
<line fill="none" stroke="#000000" stroke-miterlimit="10" x1="277.4" y1="250.3" x2="760.8" y2="589.7"/>
<path fill="none" stroke="#000000" stroke-miterlimit="10" d="M276.9,114.2c6.1-0.9,13.4-1.4,21.8-1.1c8.6,0.5,16.2,1.6,22.3,3"/>
<path fill="none" stroke="#000000" stroke-miterlimit="10" d="M277.4,151.1c4.3-0.5,9.1-0.9,14.6-0.9c5.5,0,10.2,0.2,14.6,0.5"/>
<line fill="none" stroke="#000000" stroke-miterlimit="10" x1="294" y1="133.1" x2="630.7" y2="497.1"/>
<line fill="none" stroke="#000000" stroke-miterlimit="10" x1="277.4" y1="250.3" x2="294" y2="133.1"/>
<circle stroke="#000000" stroke-miterlimit="10" cx="633.4" cy="498.2" r="5.7"/>
<text transform="matrix(1 0 0 1 272.4186 94.4158)" fill="#010101" font-family="'TimesNewRomanPS-ItalicMT'" font-size="54.6022">d</text>
<text transform="matrix(1 0 0 1 303.9855 94.4158)" fill="#010101" font-family="'TimesNewRomanPS-ItalicMT'" font-size="54.6022">q</text>
<text transform="matrix(1 0 0 1 255.8533 208.1701)" fill="#010101" font-family="'TimesNewRomanPS-ItalicMT'" font-size="54.6022">r</text>
<g>
	<g>
		<line fill="none" stroke="#000000" stroke-miterlimit="10" x1="230.3" y1="436.8" x2="238.2" y2="404.7"/>
		<g>
			<path d="M237.3,408.8l-9.1,3v-0.2l8.4-11.6c2-4.3,4.3-8.6,6.4-12.7c-0.2,4.8-0.2,9.6-0.5,14.3l1.8,14.3l-0.2,0.2L237.3,408.8z"/>
		</g>
	</g>
</g>
<g>
	<g>
		<line fill="none" stroke="#000000" stroke-miterlimit="10" x1="264.4" y1="303.7" x2="256.4" y2="335.8"/>
		<g>
			<path d="M257.3,331.7l9.1-3v0.2l-8.4,11.6c-2,4.3-4.3,8.6-6.4,12.7c0.2-4.8,0.2-9.6,0.5-14.3l-1.8-14.3l0.2-0.2L257.3,331.7z"/>
		</g>
	</g>
</g>
<text transform="matrix(1 0 0 1 265.5935 433.4046)" fill="#010101" font-family="'TimesNewRomanPS-ItalicMT'" font-size="54.6022">d</text>
<text transform="matrix(1 0 0 1 297.1604 433.4046)" fill="#010101" font-family="'TimesNewRomanPS-ItalicMT'" font-size="54.6022">r</text>
<text transform="matrix(1 0 0 1 642.0512 477.7688)" fill="#010101" font-family="'TimesNewRomanPS-ItalicMT'" font-size="54.6022">P</text>
<text transform="matrix(1 0 0 1 508.4955 309.5538)" fill="#010101" font-family="'TimesNewRomanPS-ItalicMT'" font-size="54.6022">r</text>
<text transform="matrix(1 0 0 1 525.5583 327.1864)" fill="#010101" font-family="'TimesNewRomanPS-ItalicMT'" font-size="31.8513">d</text>
<text transform="matrix(1 0 0 1 543.9009 327.1864)" fill="#010101" font-family="'TimesNewRomanPS-ItalicMT'" font-size="31.8513">q</text>
<text transform="matrix(1 0 0 1 562.1024 327.1864)" fill="#010101" font-family="'TimesNewRomanPSMT'" font-size="31.8513">,</text>
<text transform="matrix(1 0 0 1 571.7711 327.1864)" fill="#010101" font-family="'TimesNewRomanPS-ItalicMT'" font-size="31.8513">P</text>
<text transform="matrix(1 0 0 1 246.1844 260.4972)" fill="#010101" font-family="'TimesNewRomanPS-ItalicMT'" font-size="27.3011">O</text>
<text transform="matrix(1 0 0 1 461.7494 442.5045)" fill="#010101" font-family="'TimesNewRomanPS-ItalicMT'" font-size="54.6022">x</text>
<g>
	<g>
		<line fill="none" stroke="#ED1C24" stroke-width="1.5" stroke-miterlimit="10" x1="633.4" y1="498.5" x2="719.1" y2="559.7"/>
		<g>
			<path fill="#ED1C24" d="M714,556.3l4.3-11.1h0.5l9.3,16c4.3,4.9,8.8,9.8,13.1,14.8c-6.9-3.3-13.9-6.4-20.8-9.7l-22.9-7.3
				l-0.3-0.4L714,556.3z"/>
		</g>
	</g>
</g>
<text transform="matrix(1 0 0 1 683 512)" font-family="'TimesNewRomanPS-ItalicMT'" font-size="36">dE</text>
<text transform="matrix(1 0 0 1 725 519)" font-family="'TimesNewRomanPS-ItalicMT'" font-size="24">x</text>
</svg>
