<?xml version="1.0" encoding="utf-8"?>
<!-- Generator: Adobe Illustrator 19.1.0, SVG Export Plug-In . SVG Version: 6.00 Build 0)  -->
<svg version="1.1" id="Layer_1" xmlns="http://www.w3.org/2000/svg" xmlns:xlink="http://www.w3.org/1999/xlink" x="0px" y="0px"
	 viewBox="0 0 326.7 269" style="enable-background:new 0 0 326.7 269;" xml:space="preserve">
<style type="text/css">
	.st0{fill:none;stroke:#000000;stroke-miterlimit:10;}
	.st1{enable-background:new    ;}
	.st2{clip-path:url(#SVGID_2_);enable-background:new    ;}
	.st3{fill:#CD5E5D;}
	.st4{fill:#CC5E5D;}
	.st5{fill:#CC5E5C;}
	.st6{fill:#CB5D5C;}
	.st7{fill:#CA5D5C;}
	.st8{fill:#C95C5B;}
	.st9{fill:#C85C5B;}
	.st10{fill:#C75B5A;}
	.st11{fill:#C65B5A;}
	.st12{fill:#C55A59;}
	.st13{fill:#C45A59;}
	.st14{fill:#C35A59;}
	.st15{fill:#C35958;}
	.st16{fill:#C25958;}
	.st17{fill:#C15958;}
	.st18{fill:#C15857;}
	.st19{fill:#C05857;}
	.st20{fill:#BF5857;}
	.st21{fill:#BF5756;}
	.st22{fill:#BE5756;}
	.st23{fill:#BD5756;}
	.st24{fill:#BD5656;}
	.st25{clip-path:url(#SVGID_4_);enable-background:new    ;}
	.st26{clip-path:url(#SVGID_6_);enable-background:new    ;}
	.st27{fill:#D3B28B;}
	.st28{fill:#D3B18B;}
	.st29{fill:#D2B18A;}
	.st30{fill:#D2B08A;}
	.st31{fill:#D1B08A;}
	.st32{fill:#D1AF89;}
	.st33{fill:#D0AF89;}
	.st34{fill:#CFAE88;}
	.st35{clip-path:url(#SVGID_8_);enable-background:new    ;}
	.st36{clip-path:url(#SVGID_10_);enable-background:new    ;}
	.st37{clip-path:url(#SVGID_12_);enable-background:new    ;}
	.st38{fill:#C3A481;}
	.st39{fill:#C3A581;}
	.st40{fill:#C4A582;}
	.st41{fill:#C5A682;}
	.st42{fill:#C5A683;}
	.st43{fill:#C6A783;}
	.st44{fill:#C7A884;}
	.st45{fill:#C8A884;}
	.st46{fill:#C9A985;}
	.st47{fill:#CAAA85;}
	.st48{fill:#CAAA86;}
	.st49{fill:#CBAB86;}
	.st50{fill:#CCAC87;}
	.st51{fill:#CDAC87;}
	.st52{fill:#CDAD88;}
	.st53{fill:#CEAD88;}
	.st54{fill:#E26867;}
	.st55{fill:#EAC499;}
	.st56{clip-path:url(#SVGID_14_);enable-background:new    ;}
	.st57{stroke:#000000;stroke-miterlimit:10;}
	.st58{fill:#010101;}
	.st59{font-family:'TimesNewRomanPS-ItalicMT';}
	.st60{font-size:24px;}
	.st61{font-size:12px;}
	.st62{font-family:'Symbol';}
	.st63{font-family:'TimesNewRomanPSMT';}
</style>
<line class="st0" x1="9" y1="40" x2="35.5" y2="56.5"/>
<g>
	<g>
		<g class="st1">
			<g class="st1">
				<defs>
					<path id="SVGID_1_" class="st1" d="M149.4,15.5l13.7,7.4c24.7,13.4,41,40.8,41,74.5c-0.1,52.4-39.9,100.7-88.7,107.6l-13.7-7.4
						c48.8-6.9,88.6-55.1,88.7-107.6C190.4,56.3,174.1,28.9,149.4,15.5z"/>
				</defs>
				<clipPath id="SVGID_2_">
					<use xlink:href="#SVGID_1_"  style="overflow:visible;"/>
				</clipPath>
				<g class="st2">
					<path class="st3" d="M115.3,205l-13.7-7.4c1.3-0.2,2.6-0.4,3.9-0.6l13.7,7.4C117.9,204.6,116.6,204.8,115.3,205"/>
					<path class="st4" d="M119.2,204.3l-13.7-7.4c3.8-0.7,7.5-1.7,11.1-2.8l13.7,7.4C126.6,202.7,122.9,203.6,119.2,204.3"/>
					<path class="st5" d="M130.3,201.5l-13.7-7.4c2.1-0.7,4.2-1.4,6.2-2.3l13.7,7.4C134.5,200.1,132.4,200.8,130.3,201.5"/>
					<path class="st6" d="M136.5,199.2l-13.7-7.4c1.6-0.6,3.2-1.3,4.7-2.1l13.7,7.4C139.7,197.9,138.1,198.6,136.5,199.2"/>
					<path class="st6" d="M141.2,197.2l-13.7-7.4c1.4-0.7,2.8-1.4,4.2-2.1l13.7,7.4C144.1,195.8,142.7,196.5,141.2,197.2"/>
					<path class="st7" d="M145.4,195.1l-13.7-7.4c1.3-0.7,2.5-1.4,3.8-2.1l13.7,7.4C148,193.7,146.7,194.4,145.4,195.1"/>
					<path class="st7" d="M149.2,193l-13.7-7.4c1.1-0.7,2.2-1.3,3.3-2l13.7,7.4C151.4,191.7,150.3,192.3,149.2,193"/>
					<path class="st8" d="M152.5,191l-13.7-7.4c1.1-0.7,2.1-1.4,3.2-2.1l13.7,7.4C154.6,189.6,153.6,190.3,152.5,191"/>
					<path class="st8" d="M155.7,188.8l-13.7-7.4c1-0.7,1.9-1.4,2.9-2.1l13.7,7.4C157.6,187.5,156.6,188.2,155.7,188.8"/>
					<path class="st9" d="M158.5,186.8l-13.7-7.4c0.9-0.7,1.9-1.4,2.8-2.1l13.7,7.4C160.4,185.4,159.5,186.1,158.5,186.8"/>
					<path class="st9" d="M161.3,184.7l-13.7-7.4c0.9-0.7,1.7-1.4,2.6-2.1l13.7,7.4C163.1,183.3,162.2,184,161.3,184.7"/>
					<path class="st10" d="M163.9,182.5l-13.7-7.4c0.8-0.7,1.7-1.4,2.5-2.2l13.7,7.4C165.6,181.1,164.8,181.8,163.9,182.5"/>
					<path class="st10" d="M166.4,180.3l-13.7-7.4c0.8-0.7,1.6-1.5,2.4-2.2l13.7,7.4C168,178.9,167.2,179.6,166.4,180.3"/>
					<path class="st11" d="M168.8,178.1l-13.7-7.4c0.8-0.7,1.5-1.5,2.3-2.3l13.7,7.4C170.3,176.6,169.6,177.4,168.8,178.1"/>
					<path class="st11" d="M171.1,175.9l-13.7-7.4c0.8-0.8,1.5-1.5,2.2-2.3l13.7,7.4C172.6,174.3,171.9,175.1,171.1,175.9"/>
					<path class="st12" d="M173.3,173.6l-13.7-7.4c0.7-0.8,1.4-1.6,2.1-2.4l13.7,7.4C174.8,172,174.1,172.8,173.3,173.6"/>
					<path class="st12" d="M175.5,171.2l-13.7-7.4c0.7-0.8,1.4-1.6,2.1-2.4l13.7,7.4C176.9,169.6,176.2,170.4,175.5,171.2"/>
					<path class="st13" d="M177.5,168.8l-13.7-7.4c0.7-0.8,1.4-1.7,2-2.5l13.7,7.4C178.9,167.1,178.2,168,177.5,168.8"/>
					<path class="st14" d="M179.6,166.3l-13.7-7.4c0.7-0.8,1.3-1.7,2-2.6l13.7,7.4C180.9,164.6,180.2,165.5,179.6,166.3"/>
					<path class="st15" d="M181.5,163.7l-13.7-7.4c0.6-0.9,1.3-1.8,1.9-2.6l13.7,7.4C182.8,162,182.2,162.9,181.5,163.7"/>
					<path class="st16" d="M183.4,161.1l-13.7-7.4c0.6-0.9,1.3-1.8,1.9-2.7l13.7,7.4C184.7,159.3,184.1,160.2,183.4,161.1"/>
					<path class="st16" d="M185.3,158.3l-13.7-7.4c0.6-0.9,1.2-1.9,1.8-2.8l13.7,7.4C186.5,156.5,185.9,157.4,185.3,158.3"/>
					<path class="st17" d="M187.1,155.5l-13.7-7.4c0.6-1,1.2-2,1.8-3l13.7,7.4C188.3,153.5,187.7,154.5,187.1,155.5"/>
					<path class="st18" d="M188.9,152.5l-13.7-7.4c0.6-1,1.2-2,1.7-3.1l13.7,7.4C190.1,150.5,189.5,151.5,188.9,152.5"/>
					<path class="st19" d="M190.6,149.4L177,142c0.6-1.1,1.2-2.2,1.7-3.4l13.7,7.4C191.8,147.2,191.2,148.3,190.6,149.4"/>
					<path class="st19" d="M192.4,146l-13.7-7.4c0.6-1.1,1.1-2.3,1.6-3.4l13.7,7.4C193.5,143.8,192.9,144.9,192.4,146"/>
					<path class="st20" d="M194,142.6l-13.7-7.4c0.6-1.3,1.2-2.6,1.7-3.9l13.7,7.4C195.2,140,194.6,141.3,194,142.6"/>
					<path class="st21" d="M195.7,138.7l-13.7-7.4c0.6-1.4,1.1-2.7,1.6-4.1l13.7,7.4C196.8,136,196.3,137.3,195.7,138.7"/>
					<path class="st22" d="M197.3,134.6l-13.7-7.4c0.6-1.6,1.1-3.2,1.6-4.8l13.7,7.4C198.4,131.4,197.9,133,197.3,134.6"/>
					<path class="st22" d="M198.9,129.8l-13.7-7.4c0.6-1.9,1.1-3.7,1.6-5.6l13.7,7.4C200.1,126.1,199.5,128,198.9,129.8"/>
					<path class="st23" d="M200.6,124.2l-13.7-7.4c0.6-2.4,1.2-4.8,1.6-7.3l13.7,7.4C201.7,119.3,201.2,121.8,200.6,124.2"/>
					<path class="st24" d="M202.2,116.9l-13.7-7.4c1.2-6.4,1.8-12.9,1.9-19.5c0.1-33.7-16.3-61.1-41-74.5l13.7,7.4
						c24.7,13.4,41,40.8,41,74.5C204,104,203.4,110.5,202.2,116.9"/>
				</g>
			</g>
			<g class="st1">
				<defs>
					<path id="SVGID_3_" class="st1" d="M67.9,196.8l-13.7-7.4c13.7,7.5,30,10.6,47.4,8.2l13.7,7.4
						C97.9,207.4,81.6,204.3,67.9,196.8z"/>
				</defs>
				<clipPath id="SVGID_4_">
					<use xlink:href="#SVGID_3_"  style="overflow:visible;"/>
				</clipPath>
				<g class="st25">
					<path class="st8" d="M67.9,196.8l-13.7-7.4c0.9,0.5,1.8,1,2.7,1.4l13.7,7.4C69.7,197.8,68.8,197.3,67.9,196.8"/>
					<path class="st8" d="M70.6,198.2l-13.7-7.4c1,0.5,2,0.9,3,1.4l13.7,7.4C72.6,199.2,71.6,198.7,70.6,198.2"/>
					<path class="st7" d="M73.6,199.6l-13.7-7.4c1.1,0.5,2.2,0.9,3.3,1.4l13.7,7.4C75.8,200.5,74.7,200.1,73.6,199.6"/>
					<path class="st7" d="M76.9,201l-13.7-7.4c1.2,0.4,2.3,0.9,3.5,1.2l13.7,7.4C79.3,201.8,78.1,201.4,76.9,201"/>
					<path class="st6" d="M80.5,202.2l-13.7-7.4c1.4,0.4,2.8,0.8,4.2,1.2l13.7,7.4C83.2,203,81.9,202.6,80.5,202.2"/>
					<path class="st6" d="M84.7,203.4L71,196c1.6,0.4,3.2,0.8,4.8,1.1l13.7,7.4C87.8,204.2,86.2,203.8,84.7,203.4"/>
					<path class="st5" d="M89.5,204.5L75.8,197c2,0.4,4,0.7,6.1,0.9l13.7,7.4C93.5,205.1,91.5,204.8,89.5,204.5"/>
					<path class="st4" d="M95.5,205.4l-13.7-7.4c3.5,0.4,7,0.5,10.6,0.4l13.7,7.4C102.6,205.9,99,205.7,95.5,205.4"/>
					<path class="st3" d="M106.2,205.8l-13.7-7.4c3-0.1,6.1-0.3,9.2-0.8l13.7,7.4C112.2,205.4,109.2,205.7,106.2,205.8"/>
				</g>
			</g>
			<g class="st1">
				<defs>
					<path id="SVGID_5_" class="st1" d="M111,6.5c14-0.4,27.1,2.8,38.4,8.9l13.7,7.4c-11.3-6.2-24.4-9.4-38.4-8.9
						C120.1,11.5,115.6,9,111,6.5z"/>
				</defs>
				<clipPath id="SVGID_6_">
					<use xlink:href="#SVGID_5_"  style="overflow:visible;"/>
				</clipPath>
				<g class="st26">
					<path class="st27" d="M115.7,14.8L102,7.3c3.1-0.4,6.1-0.7,9.2-0.8l13.7,7.4C121.8,14.1,118.8,14.3,115.7,14.8"/>
					<path class="st28" d="M124.8,14l-13.7-7.4c3.6-0.1,7.1,0,10.6,0.4l13.7,7.4C132,14,128.4,13.9,124.8,14"/>
					<path class="st29" d="M135.4,14.4l-13.7-7.4c2.1,0.2,4.1,0.5,6.1,0.9l13.7,7.4C139.5,14.9,137.5,14.6,135.4,14.4"/>
					<path class="st30" d="M141.5,15.3l-13.7-7.4c1.6,0.3,3.2,0.7,4.8,1.1l13.7,7.4C144.8,15.9,143.2,15.6,141.5,15.3"/>
					<path class="st31" d="M146.3,16.3l-13.7-7.4c1.4,0.4,2.8,0.8,4.2,1.2l13.7,7.4C149.1,17.1,147.7,16.7,146.3,16.3"/>
					<path class="st32" d="M150.5,17.5l-13.7-7.4c1.2,0.4,2.4,0.8,3.5,1.2l13.7,7.4C152.9,18.3,151.7,17.9,150.5,17.5"/>
					<path class="st33" d="M154.1,18.8l-13.7-7.4c1.1,0.4,2.2,0.9,3.3,1.4l13.7,7.4C156.3,19.7,155.2,19.2,154.1,18.8"/>
					<path class="st33" d="M157.4,20.1l-13.7-7.4c1,0.4,2,0.9,3,1.4l13.7,7.4C159.4,21,158.4,20.6,157.4,20.1"/>
					<path class="st34" d="M160.4,21.5l-13.7-7.4c0.9,0.4,1.8,0.9,2.7,1.4l13.7,7.4C162.2,22.4,161.3,22,160.4,21.5"/>
				</g>
			</g>
			<g class="st1">
				<defs>
					<path id="SVGID_7_" class="st1" d="M102,7.3c3-0.4,6-0.7,9-0.8c4.6,2.5,9.1,5,13.7,7.4c-3,0.1-6,0.4-9,0.8
						C111.6,12.5,106.1,9.6,102,7.3z"/>
				</defs>
				<clipPath id="SVGID_8_">
					<use xlink:href="#SVGID_7_"  style="overflow:visible;"/>
				</clipPath>
				<g class="st35">
					<path class="st27" d="M115.7,14.8L102,7.3c3.1-0.4,6.1-0.7,9.2-0.8l13.7,7.4C121.8,14.1,118.8,14.3,115.7,14.8"/>
				</g>
			</g>
			<g class="st1">
				<defs>
					<path id="SVGID_9_" class="st1" d="M149.9,14.6l13.7,7.4c-13.8-7.5-30.3-10.7-47.9-8.2L102,6.4C119.6,3.9,136,7.1,149.9,14.6z"
						/>
				</defs>
				<clipPath id="SVGID_10_">
					<use xlink:href="#SVGID_9_"  style="overflow:visible;"/>
				</clipPath>
				<g class="st36">
					<path class="st3" d="M115.7,13.8L102,6.4c3.1-0.4,6.2-0.7,9.3-0.8l13.7,7.4C121.9,13.1,118.8,13.4,115.7,13.8"/>
					<path class="st4" d="M124.9,13l-13.7-7.4c3.6-0.1,7.2,0,10.7,0.4l13.7,7.4C132.1,13,128.6,12.9,124.9,13"/>
					<path class="st5" d="M135.6,13.4L122,6c2.1,0.2,4.1,0.5,6.2,0.9l13.7,7.4C139.8,13.9,137.7,13.6,135.6,13.4"/>
					<path class="st6" d="M141.8,14.3l-13.7-7.4c1.6,0.3,3.3,0.7,4.8,1.1l13.7,7.4C145,15,143.4,14.6,141.8,14.3"/>
					<path class="st6" d="M146.6,15.4L133,7.9c1.4,0.4,2.8,0.8,4.2,1.2l13.7,7.4C149.5,16.2,148.1,15.8,146.6,15.4"/>
					<path class="st7" d="M150.9,16.6l-13.7-7.4c1.2,0.4,2.4,0.8,3.6,1.2l13.7,7.4C153.3,17.4,152.1,17,150.9,16.6"/>
					<path class="st7" d="M154.4,17.9l-13.7-7.4c1.1,0.4,2.2,0.9,3.4,1.4l13.7,7.4C156.7,18.7,155.6,18.3,154.4,17.9"/>
					<path class="st8" d="M157.8,19.2l-13.7-7.4c1,0.4,2,0.9,3,1.4l13.7,7.4C159.8,20.1,158.8,19.7,157.8,19.2"/>
					<path class="st8" d="M160.8,20.6l-13.7-7.4c0.9,0.5,1.8,0.9,2.7,1.4l13.7,7.4C162.7,21.5,161.8,21.1,160.8,20.6"/>
				</g>
			</g>
			<g class="st1">
				<defs>
					<path id="SVGID_11_" class="st1" d="M13.3,114.9C13.4,62.4,53.2,14.2,102,7.3l13.7,7.4C66.8,21.6,27,69.9,26.9,122.3l0,0
						c-0.1,33.7,16.3,61.1,41,74.5l-13.7-7.4C29.6,176,13.2,148.6,13.3,114.9L13.3,114.9z"/>
				</defs>
				<clipPath id="SVGID_12_">
					<use xlink:href="#SVGID_11_"  style="overflow:visible;"/>
				</clipPath>
				<g class="st37">
					<path class="st38" d="M67.9,196.8l-13.7-7.4c-24.7-13.4-41-40.8-41-74.5c0-6.6,0.7-13.1,1.9-19.5l13.7,7.4
						c-1.2,6.4-1.8,12.9-1.9,19.5C26.9,156,43.2,183.4,67.9,196.8"/>
					<path class="st39" d="M28.8,102.8l-13.7-7.4c0.5-2.5,1-4.9,1.6-7.3l13.7,7.4C29.8,97.9,29.3,100.4,28.8,102.8"/>
					<path class="st40" d="M30.4,95.5l-13.7-7.4c0.5-1.9,1-3.8,1.6-5.6l13.7,7.4C31.5,91.8,30.9,93.6,30.4,95.5"/>
					<path class="st40" d="M32.1,89.9l-13.7-7.4c0.5-1.6,1.1-3.2,1.6-4.8l13.7,7.4C33.1,86.7,32.6,88.3,32.1,89.9"/>
					<path class="st41" d="M33.7,85.1L20,77.7c0.5-1.4,1-2.8,1.6-4.1L35.3,81C34.7,82.4,34.2,83.7,33.7,85.1"/>
					<path class="st42" d="M35.3,81l-13.7-7.4c0.5-1.3,1.1-2.6,1.7-3.9L37,77.1C36.4,78.4,35.8,79.7,35.3,81"/>
					<path class="st43" d="M37,77.1l-13.7-7.4c0.5-1.2,1.1-2.3,1.6-3.4l13.7,7.4C38.1,74.8,37.5,76,37,77.1"/>
					<path class="st43" d="M38.6,73.7l-13.7-7.4c0.6-1.1,1.1-2.3,1.7-3.4l13.7,7.4C39.8,71.4,39.2,72.5,38.6,73.7"/>
					<path class="st44" d="M40.4,70.3l-13.7-7.4c0.6-1,1.1-2.1,1.7-3.1l13.7,7.4C41.5,68.2,40.9,69.3,40.4,70.3"/>
					<path class="st45" d="M42.1,67.2l-13.7-7.4c0.6-1,1.2-2,1.8-3l13.7,7.4C43.3,65.2,42.7,66.2,42.1,67.2"/>
					<path class="st45" d="M43.9,64.2l-13.7-7.4c0.6-1,1.2-1.9,1.8-2.8l13.7,7.4C45.1,62.3,44.5,63.3,43.9,64.2"/>
					<path class="st46" d="M45.7,61.4L32,53.9c0.6-0.9,1.2-1.8,1.9-2.7l13.7,7.4C46.9,59.5,46.3,60.5,45.7,61.4"/>
					<path class="st46" d="M47.6,58.6l-13.7-7.4c0.6-0.9,1.3-1.8,1.9-2.6L49.5,56C48.8,56.9,48.2,57.7,47.6,58.6"/>
					<path class="st47" d="M49.5,56l-13.7-7.4c0.6-0.9,1.3-1.7,2-2.6l13.7,7.4C50.8,54.3,50.1,55.1,49.5,56"/>
					<path class="st48" d="M51.4,53.4L37.8,46c0.7-0.8,1.3-1.7,2-2.5l13.7,7.4C52.8,51.8,52.1,52.6,51.4,53.4"/>
					<path class="st49" d="M53.5,50.9l-13.7-7.4c0.7-0.8,1.4-1.6,2.1-2.4l13.7,7.4C54.8,49.3,54.1,50.1,53.5,50.9"/>
					<path class="st49" d="M55.5,48.5l-13.7-7.4c0.7-0.8,1.4-1.6,2.1-2.4l13.7,7.4C56.9,46.9,56.2,47.7,55.5,48.5"/>
					<path class="st50" d="M57.7,46.2L44,38.7c0.7-0.8,1.5-1.6,2.2-2.3l13.7,7.4C59.1,44.6,58.4,45.4,57.7,46.2"/>
					<path class="st50" d="M59.9,43.8l-13.7-7.4c0.8-0.8,1.5-1.5,2.3-2.3l13.7,7.4C61.4,42.3,60.6,43.1,59.9,43.8"/>
					<path class="st51" d="M62.2,41.6l-13.7-7.4c0.8-0.8,1.6-1.5,2.4-2.2l13.7,7.4C63.8,40.1,63,40.8,62.2,41.6"/>
					<path class="st52" d="M64.6,39.4l-13.7-7.4c0.8-0.7,1.7-1.5,2.5-2.2l13.7,7.4C66.2,37.9,65.4,38.6,64.6,39.4"/>
					<path class="st53" d="M67.1,37.2l-13.7-7.4c0.9-0.7,1.7-1.4,2.6-2.1l13.7,7.4C68.8,35.8,67.9,36.5,67.1,37.2"/>
					<path class="st34" d="M69.7,35.1L56,27.6c0.9-0.7,1.8-1.4,2.8-2.1l13.7,7.4C71.5,33.6,70.6,34.3,69.7,35.1"/>
					<path class="st34" d="M72.4,32.9l-13.7-7.4c0.9-0.7,1.9-1.4,2.9-2.1l13.7,7.4C74.3,31.6,73.4,32.2,72.4,32.9"/>
					<path class="st33" d="M75.3,30.9l-13.7-7.4c1-0.7,2.1-1.4,3.2-2.1l13.7,7.4C77.4,29.5,76.4,30.2,75.3,30.9"/>
					<path class="st33" d="M78.5,28.8l-13.7-7.4c1.1-0.7,2.2-1.4,3.3-2l13.7,7.4C80.7,27.4,79.6,28.1,78.5,28.8"/>
					<path class="st32" d="M81.8,26.7l-13.7-7.4c1.2-0.7,2.5-1.4,3.8-2.1l13.7,7.4C84.3,25.3,83,26,81.8,26.7"/>
					<path class="st31" d="M85.6,24.6l-13.7-7.4c1.4-0.7,2.8-1.4,4.2-2.1l13.7,7.4C88.3,23.2,86.9,23.9,85.6,24.6"/>
					<path class="st30" d="M89.7,22.6l-13.7-7.4c1.6-0.7,3.1-1.4,4.7-2.1l13.7,7.4C92.9,21.1,91.3,21.8,89.7,22.6"/>
					<path class="st29" d="M94.5,20.5l-13.7-7.4c2.1-0.8,4.1-1.6,6.2-2.3l13.7,7.4C98.6,18.9,96.5,19.7,94.5,20.5"/>
					<path class="st28" d="M100.7,18.2L87,10.8c3.6-1.2,7.3-2.1,11.1-2.8l13.7,7.4C108,16.1,104.3,17,100.7,18.2"/>
					<path class="st27" d="M111.8,15.4L98.1,8c1.3-0.2,2.6-0.4,3.9-0.6l13.7,7.4C114.4,14.9,113.1,15.2,111.8,15.4"/>
				</g>
			</g>
			<g>
				<path class="st54" d="M115.7,13.8C165,6.9,205,44.3,204.9,97.3c-0.1,53-40.3,101.7-89.6,108.6C66,212.9,26,175.4,26,122.4
					C26.1,69.5,66.4,20.7,115.7,13.8z M115.3,205c48.8-6.9,88.6-55.1,88.7-107.6c0.1-52.4-39.6-89.5-88.4-82.7
					C66.8,21.6,27,69.9,26.9,122.3C26.8,174.7,66.5,211.8,115.3,205"/>
			</g>
			<g>
				<path class="st55" d="M115.7,14.8c48.8-6.9,88.5,30.2,88.4,82.7c-0.1,52.4-39.9,100.7-88.7,107.6c-48.8,6.9-88.5-30.2-88.4-82.7
					C27,69.9,66.8,21.6,115.7,14.8z"/>
			</g>
			<g class="st1">
				<defs>
					<path id="SVGID_13_" class="st1" d="M67.4,197.7l-13.7-7.4c-24.9-13.6-41.4-41.2-41.4-75.3C12.5,62,52.7,13.3,102,6.4l13.7,7.4
						C66.4,20.7,26.1,69.5,26,122.4C26,156.5,42.5,184.1,67.4,197.7z"/>
				</defs>
				<clipPath id="SVGID_14_">
					<use xlink:href="#SVGID_13_"  style="overflow:visible;"/>
				</clipPath>
				<g class="st56">
					<path class="st24" d="M67.4,197.7l-13.7-7.4c-24.9-13.6-41.4-41.2-41.4-75.3c0-6.6,0.7-13.2,1.9-19.7l13.7,7.4
						c-1.2,6.4-1.9,13-1.9,19.7C26,156.5,42.5,184.1,67.4,197.7"/>
					<path class="st23" d="M27.9,102.8l-13.7-7.4c0.5-2.5,1-4.9,1.7-7.4l13.7,7.4C28.9,97.8,28.4,100.3,27.9,102.8"/>
					<path class="st22" d="M29.6,95.4L15.9,88c0.5-1.9,1-3.8,1.6-5.7l13.7,7.4C30.6,91.6,30.1,93.5,29.6,95.4"/>
					<path class="st22" d="M31.2,89.7l-13.7-7.4c0.5-1.6,1.1-3.2,1.6-4.8l13.7,7.4C32.3,86.5,31.7,88.1,31.2,89.7"/>
					<path class="st21" d="M32.9,84.9l-13.7-7.4c0.5-1.4,1.1-2.8,1.6-4.2l13.7,7.4C33.9,82.1,33.4,83.5,32.9,84.9"/>
					<path class="st20" d="M34.5,80.7l-13.7-7.4c0.5-1.3,1.1-2.6,1.7-3.9l13.7,7.4C35.6,78.1,35,79.4,34.5,80.7"/>
					<path class="st19" d="M36.2,76.8l-13.7-7.4c0.5-1.2,1.1-2.3,1.7-3.5l13.7,7.4C37.3,74.5,36.7,75.6,36.2,76.8"/>
					<path class="st19" d="M37.8,73.3l-13.7-7.4c0.6-1.1,1.2-2.3,1.8-3.4l13.7,7.4C39,71,38.4,72.2,37.8,73.3"/>
					<path class="st18" d="M39.6,69.9l-13.7-7.4c0.6-1,1.1-2.1,1.7-3.1l13.7,7.4C40.7,67.8,40.2,68.8,39.6,69.9"/>
					<path class="st17" d="M41.3,66.8l-13.7-7.4c0.6-1,1.2-2,1.8-3l13.7,7.4C42.5,64.8,41.9,65.8,41.3,66.8"/>
					<path class="st16" d="M43.2,63.7l-13.7-7.4c0.6-1,1.2-1.9,1.8-2.9L45,60.9C44.4,61.8,43.8,62.8,43.2,63.7"/>
					<path class="st16" d="M45,60.9l-13.7-7.4c0.6-0.9,1.2-1.9,1.9-2.8l13.7,7.4C46.2,59,45.6,60,45,60.9"/>
					<path class="st15" d="M46.9,58.1l-13.7-7.4c0.6-0.9,1.3-1.8,1.9-2.7l13.7,7.4C48.2,56.3,47.5,57.2,46.9,58.1"/>
					<path class="st14" d="M48.8,55.4L35.1,48c0.6-0.9,1.3-1.7,2-2.6l13.7,7.4C50.1,53.7,49.5,54.6,48.8,55.4"/>
					<path class="st13" d="M50.8,52.9l-13.7-7.4c0.7-0.8,1.4-1.7,2-2.5l13.7,7.4C52.1,51.2,51.5,52,50.8,52.9"/>
					<path class="st12" d="M52.8,50.3l-13.7-7.4c0.7-0.8,1.4-1.6,2.1-2.4l13.7,7.4C54.2,48.7,53.5,49.5,52.8,50.3"/>
					<path class="st12" d="M54.9,47.9l-13.7-7.4c0.7-0.8,1.4-1.6,2.2-2.4l13.7,7.4C56.4,46.3,55.6,47.1,54.9,47.9"/>
					<path class="st11" d="M57.1,45.5l-13.7-7.4c0.7-0.8,1.5-1.6,2.2-2.3l13.7,7.4C58.6,43.9,57.8,44.7,57.1,45.5"/>
					<path class="st11" d="M59.3,43.2l-13.7-7.4c0.8-0.8,1.5-1.5,2.3-2.3l13.7,7.4C60.9,41.7,60.1,42.4,59.3,43.2"/>
					<path class="st10" d="M61.6,40.9L48,33.5c0.8-0.8,1.6-1.5,2.4-2.2l13.7,7.4C63.3,39.4,62.4,40.1,61.6,40.9"/>
					<path class="st10" d="M64.1,38.7l-13.7-7.4c0.8-0.7,1.7-1.5,2.5-2.2l13.7,7.4C65.7,37.2,64.9,37.9,64.1,38.7"/>
					<path class="st9" d="M66.6,36.5L52.9,29c0.9-0.7,1.7-1.4,2.6-2.1l13.7,7.4C68.3,35,67.5,35.7,66.6,36.5"/>
					<path class="st9" d="M69.2,34.3l-13.7-7.4c0.9-0.7,1.9-1.5,2.8-2.2L72,32.2C71.1,32.9,70.1,33.6,69.2,34.3"/>
					<path class="st8" d="M72,32.2l-13.7-7.4c1-0.7,1.9-1.4,2.9-2.1l13.7,7.4C73.9,30.8,73,31.5,72,32.2"/>
					<path class="st8" d="M74.9,30.1l-13.7-7.4c1.1-0.7,2.1-1.4,3.2-2.1L78.1,28C77,28.6,76,29.4,74.9,30.1"/>
					<path class="st7" d="M78.1,28l-13.7-7.4c1.1-0.7,2.2-1.4,3.3-2l13.7,7.4C80.3,26.6,79.2,27.2,78.1,28"/>
					<path class="st7" d="M81.5,25.9l-13.7-7.4c1.3-0.7,2.5-1.4,3.8-2.1l13.7,7.4C84,24.5,82.7,25.2,81.5,25.9"/>
					<path class="st6" d="M85.3,23.8l-13.7-7.4c1.4-0.7,2.8-1.4,4.2-2.1l13.7,7.4C88.1,22.3,86.7,23,85.3,23.8"/>
					<path class="st6" d="M89.5,21.7l-13.7-7.4c1.6-0.7,3.2-1.4,4.8-2.1l13.7,7.4C92.6,20.2,91.1,20.9,89.5,21.7"/>
					<path class="st5" d="M94.2,19.6l-13.7-7.4c2.1-0.8,4.2-1.6,6.3-2.3l13.7,7.4C98.4,18,96.3,18.8,94.2,19.6"/>
					<path class="st4" d="M100.6,17.3L86.9,9.9c3.7-1.2,7.4-2.1,11.2-2.9l13.7,7.4C108,15.1,104.2,16.1,100.6,17.3"/>
					<path class="st3" d="M111.8,14.4L98.1,7c1.3-0.2,2.6-0.5,3.9-0.6l13.7,7.4C114.4,14,113.1,14.2,111.8,14.4"/>
				</g>
			</g>
		</g>
	</g>
</g>
<line class="st0" x1="111.2" y1="110" x2="323.7" y2="259.2"/>
<circle class="st57" cx="267.7" cy="219" r="2.5"/>
<text transform="matrix(1 0 0 1 271.5 210)" class="st58 st59 st60">P</text>
<text transform="matrix(1 0 0 1 97.5 114.5)" class="st58 st59 st61">O</text>
<text transform="matrix(1 0 0 1 192.25 194.5)" class="st58 st59 st60">x</text>
<g>
	<g>
		<line class="st0" x1="111.2" y1="110" x2="150.5" y2="26.4"/>
		<g>
			<path d="M149.8,28l-4.2,0.4l0-0.1l4.6-4.3c1.3-1.7,2.6-3.3,3.8-5c-0.5,2-0.9,4.1-1.4,6.1l-0.4,6.3l-0.1,0.1L149.8,28z"/>
		</g>
	</g>
</g>
<text transform="matrix(1 0 0 1 110.5 65)" class="st58 st59 st60">R</text>
<g>
	<g>
		<path class="st0" d="M240,31.9c-4.5,0.2-13.1,1.2-22.2,7.2c-6.1,4-10.5,8.9-13.5,13.2"/>
		<g>
			<path d="M205.4,50.8l4.2,0l0,0.1l-5.1,3.8c-1.5,1.5-2.9,3-4.4,4.5c0.7-2,1.4-4,2.1-5.9l1.1-6.2l0.1-0.1L205.4,50.8z"/>
		</g>
	</g>
</g>
<text transform="matrix(1 0 0 1 204.6146 23)" class="st58 st59 st60">Q</text>
<text transform="matrix(1 0 0 1 227.5521 23)" class="st58 st62 st60">&gt;</text>
<text transform="matrix(1 0 0 1 245.4896 23)" class="st58 st63 st60">0</text>
</svg>
