<?xml version="1.0" encoding="utf-8"?>
<!-- Generator: Adobe Illustrator 21.1.0, SVG Export Plug-In . SVG Version: 6.00 Build 0)  -->
<svg version="1.1" id="Layer_1" xmlns="http://www.w3.org/2000/svg" xmlns:xlink="http://www.w3.org/1999/xlink" x="0px" y="0px"
	 viewBox="0 0 746 268.3" style="enable-background:new 0 0 746 268.3;" xml:space="preserve">
<style type="text/css">
	.st0{fill:none;stroke:#000000;stroke-miterlimit:10;}
	.st1{font-family:'STIXGeneral-BoldItalic';}
	.st2{font-size:24px;}
	.st3{opacity:0.6;fill:#FFB29F;stroke:#000000;stroke-width:0.7;enable-background:new    ;}
	.st4{fill:#FF3E0F;stroke:#000000;stroke-miterlimit:10;}
	.st5{fill:none;stroke:#C50015;stroke-width:0.7;stroke-miterlimit:10;}
	.st6{fill:#C50015;}
	.st7{font-size:28px;}
	.st8{fill:#0700D8;}
	.st9{font-family:'Arial-BoldMT';}
	.st10{font-size:22px;}
	.st11{fill:none;stroke:#000000;stroke-miterlimit:10;stroke-dasharray:2.9751,2.9751;}
	.st12{fill:none;stroke:#000000;stroke-miterlimit:10;stroke-dasharray:3,3;}
	.st13{font-size:25px;}
	.st14{font-family:'STIXGeneral-Bold';}
	.st15{fill:none;stroke:#000000;stroke-miterlimit:10;stroke-dasharray:3,5;}
	.st16{font-size:36px;}
	.st17{font-size:16px;}
	.st18{fill:none;stroke:#231F20;stroke-width:1.5;stroke-miterlimit:10;}
	.st19{fill:none;stroke:#EF3F23;stroke-width:1.4;stroke-miterlimit:10;}
	.st20{fill:#EF3F23;}
	.st21{fill:none;stroke:#231F20;stroke-miterlimit:10;}
</style>
<g>
	<g>
		<line class="st0" x1="148" y1="200" x2="518.8" y2="200"/>
		<g>
			<path d="M524.8,200c-2.8,1.1-6.4,2.9-8.5,4.8l1.7-4.8l-1.7-4.8C518.5,197.1,522,198.9,524.8,200z"/>
		</g>
	</g>
</g>
<text transform="matrix(1 0 0 1 524.8164 220)" class="st1 st2">+x</text>
<rect x="147" y="191" class="st3" width="252" height="17"/>
<rect x="282" y="191" class="st4" width="27" height="17"/>
<line class="st0" x1="147" y1="210" x2="147" y2="235"/>
<g>
	<g>
		<line class="st0" x1="147.5" y1="226" x2="277.3" y2="226"/>
		<g>
			<path d="M275.6,226l-2.2-3.6l0.1-0.1l5.9,2.3c2,0.5,4.1,0.9,6.1,1.4c-2,0.5-4.1,0.9-6.1,1.4l-5.9,2.3l-0.1-0.1L275.6,226z"/>
		</g>
	</g>
</g>
<g>
	<g>
		<line class="st5" x1="287.7" y1="226" x2="303.3" y2="226"/>
		<g>
			<path class="st6" d="M289,226l1.5-2.5l-0.1-0.1l-4.1,1.6c-1.4,0.3-2.9,0.6-4.3,0.9c1.4,0.3,2.9,0.6,4.3,0.9l4.1,1.6h0.1L289,226z
				"/>
		</g>
		<g>
			<path class="st6" d="M302,226l-1.5-2.5l0.1-0.1l4.1,1.6c1.4,0.3,2.9,0.6,4.3,0.9c-1.4,0.3-2.9,0.6-4.3,0.9l-4.1,1.6h-0.1L302,226
				z"/>
		</g>
	</g>
</g>
<g>
	<g>
		<line class="st0" x1="148" y1="200" x2="148" y2="55.4"/>
		<g>
			<path d="M148,57.2l-3.6,2.2l-0.1-0.1l2.3-5.9c0.5-2,0.9-4.1,1.4-6.1c0.5,2,0.9,4.1,1.4,6.1l2.3,5.9l-0.1,0.1L148,57.2z"/>
		</g>
	</g>
</g>
<text transform="matrix(1 0 0 1 153.8164 55)" class="st1 st2">+y</text>
<text transform="matrix(0.9563 0 0 1 466.8164 73.1998)" class="st1 st7">P</text>
<text transform="matrix(1 0 0 1 467 96)" class="st8 st9 st10">x</text>
<g>
	<g>
		<line class="st0" x1="138.8" y1="94.6" x2="140.3" y2="94.6"/>
		<line class="st11" x1="143.3" y1="94.6" x2="544" y2="94.6"/>
		<line class="st0" x1="475.7" y1="94.6" x2="477.2" y2="94.6"/>
	</g>
</g>
<line class="st12" x1="473" y1="210" x2="473" y2="93.2"/>
<text transform="matrix(1 0 0 1 466.8164 229)" class="st1 st2">x</text>
<text transform="matrix(1 0 0 1 123.8164 93.2188)" class="st1 st2">y</text>
<g>
	<text transform="matrix(1 0 0 1 208 247.2)" class="st1 st2">x</text>
	<text transform="matrix(1 0 0 1 216.5 257)" class="st1 st10">s</text>
</g>
<g>
	<g>
		<text transform="matrix(1 0 0 1 295 249.2)" class="st1 st2">x</text>
		<text transform="matrix(1 0 0 1 304.5 258)" class="st1 st10">s</text>
	</g>
	<text transform="matrix(1 0 0 1 281.5 249)" class="st1 st13">d</text>
</g>
<text transform="matrix(1 0 0 1 118.8164 257)" class="st1 st2">x=</text>
<text transform="matrix(1 0 0 1 144.5164 257)" class="st14 st2">0</text>
<text transform="matrix(1 0 0 1 378.8164 257)" class="st1 st2">x=L</text>
<line class="st0" x1="398" y1="211" x2="398" y2="239"/>
<text transform="matrix(1 0 0 1 227 159)" class="st1 st13">dq</text>
<g>
	<g>
		<path class="st0" d="M256,157c3.4-0.2,9.8-0.1,17,3c2.1,0.9,9.2,4.2,15,12c2.1,2.8,3.6,5.6,4.7,8.2"/>
		<g>
			<path d="M292,178.5l2.8-3.2l0.1,0.1l-0.4,6.3c0.2,2.1,0.4,4.2,0.6,6.3c-1.1-1.8-2.1-3.6-3.2-5.4l-4-4.9v-0.1L292,178.5z"/>
		</g>
	</g>
</g>
<g>
	<g>
		<line class="st0" x1="653" y1="139" x2="711.8" y2="139"/>
		<g>
			<path d="M710.1,139l-2.2-3.6l0.1-0.1l5.9,2.3c2,0.5,4.1,0.9,6.1,1.4c-2,0.5-4.1,0.9-6.1,1.4l-5.9,2.3l-0.1-0.1L710.1,139z"/>
		</g>
	</g>
</g>
<g>
	<g>
		<line class="st0" x1="653" y1="135.5" x2="653" y2="76.7"/>
		<g>
			<path d="M653,78.4l-3.6,2.2l-0.1-0.1l2.3-5.9c0.5-2,0.9-4.1,1.4-6.1c0.5,2,0.9,4.1,1.4,6.1l2.3,5.9l-0.1,0.1L653,78.4z"/>
		</g>
	</g>
</g>
<g>
	<text transform="matrix(1 0 0 1 716 133.4479)" class="st1 st13">i</text>
	<g>
		<line class="st0" x1="713" y1="117.9" x2="720" y2="108.9"/>
		<line class="st0" x1="727" y1="117.9" x2="720" y2="108.9"/>
	</g>
</g>
<g>
	<text transform="matrix(1 0 0 1 665 82)" class="st1 st13">j</text>
	<g>
		<line class="st0" x1="662" y1="66.5" x2="669" y2="57.5"/>
		<line class="st0" x1="676" y1="66.5" x2="669" y2="57.5"/>
	</g>
</g>
<path class="st0" d="M584,59.4"/>
<path class="st0" d="M148,200"/>
<line class="st15" x1="295.1" y1="194" x2="473" y2="90.2"/>
<g>
	<text transform="matrix(1 0 0 1 567.5 40.3542)" class="st1 st16">r</text>
	<text transform="matrix(1 0 0 1 573.5 51.3542)" class="st1 st17">dq,P</text>
	<line class="st18" x1="565" y1="22.4" x2="575" y2="10.3"/>
	<line class="st18" x1="584" y1="22.4" x2="574" y2="10.3"/>
</g>
<g>
	<text transform="matrix(1 0 0 1 347 129.3545)" class="st1 st16">r</text>
	<text transform="matrix(1 0 0 1 353 140.3545)" class="st1 st17">dq,P</text>
</g>
<text transform="matrix(1 0 0 1 511.55 88.6877)" class="st1 st2">θ</text>
<g>
	<g>
		<line class="st19" x1="472" y1="91.2" x2="551.9" y2="45.3"/>
		<g>
			<path class="st20" d="M549.7,46.6l-5.2-2.8l0.1-0.2l8.8-1.3c2.8-0.9,5.6-1.8,8.4-2.6c-2.2,2-4.3,3.9-6.5,5.9l-5.5,6.9l-0.2,0
				L549.7,46.6z"/>
		</g>
	</g>
</g>
<path class="st21" d="M524.8,60.1c3,3.8,4.6,8,5.5,10.5c1.6,4.8,2.1,9,2.5,12.1c0.5,4.3,0.6,7.9,0.5,10.5"/>
</svg>
