<?xml version="1.0" encoding="utf-8"?>
<!-- Generator: Adobe Illustrator 17.1.0, SVG Export Plug-In . SVG Version: 6.00 Build 0)  -->
<!DOCTYPE svg PUBLIC "-//W3C//DTD SVG 1.1//EN" "http://www.w3.org/Graphics/SVG/1.1/DTD/svg11.dtd">
<svg version="1.1" id="Layer_1" xmlns="http://www.w3.org/2000/svg" xmlns:xlink="http://www.w3.org/1999/xlink" x="0px" y="0px"
	 viewBox="0 0 792 612" enable-background="new 0 0 792 612" xml:space="preserve">
<g id="XMLID_2_">
	<g>
		<path fill="#71CCD8" d="M535.2,278.8l-17.3,9.6c36.1,16.4,56.5,40.2,56.5,67.3c0,24.7-22,48.8-52.7,65.1l16,9v-0.1
			c34.9-19.4,52.7-44.7,52.7-74.8C590.6,325.1,569.4,298,535.2,278.8z"/>
	</g>
	<g>
		<path fill="none" stroke="#000000" stroke-miterlimit="10" d="M537.9,429.8c34.9-19.4,52.7-44.7,52.7-74.8
			c0-29.7-21.1-56.8-55.3-76c-0.1-0.1-0.3-0.1-0.4-0.3"/>
		<path fill="none" stroke="#000000" stroke-miterlimit="10" d="M521.6,420.9c0.1,0,0.1-0.1,0.1-0.1c30.6-16.3,52.7-40.4,52.7-65.1
			c0-27.1-20.4-50.9-56.5-67.3c-0.1,0-0.3-0.1-0.4-0.3"/>
		<polyline fill="none" stroke="#000000" stroke-miterlimit="10" points="535.7,278.5 535.2,278.8 517.9,288.4 517.4,288.7 		"/>
		<polyline fill="none" stroke="#000000" stroke-miterlimit="10" points="521.3,420.5 521.8,420.8 537.8,429.8 538.6,430.2 		"/>
	</g>
</g>
<path fill="none" stroke="#000000" stroke-miterlimit="10" d="M663.6,352.9"/>
<path fill="none" stroke="#000000" stroke-miterlimit="10" d="M72,352.9"/>
<line fill="none" stroke="#000000" stroke-miterlimit="10" x1="404.7" y1="353.3" x2="404.7" y2="108.1"/>
<path fill="#F1F2F2" stroke="#000000" stroke-miterlimit="10" d="M533.3,276.3"/>
<path fill="#FBB040" stroke="#000000" stroke-miterlimit="10" d="M533.3,276.3"/>
<path fill="#F1F2F2" stroke="#000000" stroke-miterlimit="10" d="M293.7,418.7"/>
<g id="XMLID_1_">
	<g>
		<path fill="#71CCD8" d="M274.2,278.8l17.3,9.6c-36.1,16.4-56.5,40.2-56.5,67.3c0,24.7,22,48.8,52.7,65.1l-16,9v-0.1
			c-35.1-19.4-52.8-44.7-52.8-74.8C218.9,325.1,240,298,274.2,278.8z"/>
	</g>
	<g>
		<path fill="none" stroke="#000000" stroke-miterlimit="10" d="M271.5,429.8c-34.9-19.5-52.7-44.8-52.7-75
			c0-29.7,21.1-56.8,55.3-76c0.1-0.1,0.3-0.1,0.4-0.3"/>
		<path fill="none" stroke="#000000" stroke-miterlimit="10" d="M287.8,420.9c-0.1,0-0.1-0.1-0.1-0.1C257,404.5,235,380.4,235,355.7
			c0-27.1,20.4-50.9,56.5-67.3c0.1-0.1,0.3-0.1,0.4-0.3"/>
		<polyline fill="none" stroke="#000000" stroke-miterlimit="10" points="273.8,278.5 274.2,278.8 291.5,288.4 292.1,288.7 		"/>
		<polyline fill="none" stroke="#000000" stroke-miterlimit="10" points="288.1,420.5 287.7,420.8 271.7,429.8 270.8,430.2 		"/>
	</g>
</g>
<path fill="#F1F2F2" stroke="#000000" stroke-miterlimit="10" d="M310.6,461.6"/>
<line fill="none" stroke="#000000" stroke-miterlimit="10" x1="535" y1="278.5" x2="270.8" y2="430.2"/>
<line fill="none" stroke="#000000" stroke-miterlimit="10" x1="537.9" y1="429.8" x2="274.5" y2="278.5"/>
<path fill="none" stroke="#000000" stroke-miterlimit="10" d="M444,372.4c5.9-4.4,8.7-12,7.4-19.2c-1.3-7.4-7-13.3-14.3-15.2"/>
<path fill="none" stroke="#000000" stroke-miterlimit="10" d="M361,335.9c-5.9,4.4-8.7,12-7.4,19.2c1.3,7.4,7,13.3,14.3,15.2"/>
<path fill="#010101" d="M478.5,343.6c0.7-0.4,1.6-0.7,2.5-0.7s1.6,0.3,2.2,0.7s0.9,1,1.3,1.8c0.3,0.6,0.4,1.2,0.6,1.8
	s0.1,1.2,0.1,1.8c0,0.6-0.1,1.2-0.1,1.6c-0.1,0.7-0.3,1.2-0.3,1.5c-0.1,0.6-0.3,1.2-0.6,1.9c-0.3,0.6-0.4,1.3-0.7,1.9
	c-0.3,0.7-0.7,1.5-1.2,2.1c-0.4,0.6-0.9,1.2-1.6,1.9c-0.6,0.6-1.3,1.2-2.2,1.5c-0.7,0.3-1.5,0.4-2.1,0.4s-1.3-0.1-1.8-0.4
	c-0.6-0.3-1.2-0.9-1.5-1.5c-0.4-0.7-0.6-1.5-0.7-2.1c-0.1-0.7-0.1-1.3,0-2.1c0-0.6,0.1-1.2,0.3-1.9c0.1-0.6,0.3-1.2,0.4-1.9
	c0.1-0.3,0.3-0.9,0.4-1.3s0.3-1,0.6-1.6c0.3-0.7,0.6-1.3,0.9-1.8c0.4-0.6,0.9-1,1.5-1.8C476.8,344.7,477.6,344.2,478.5,343.6
	L478.5,343.6z M480.1,357.5c0.4-0.7,0.7-1.5,0.7-1.9l0.9-2.8h-6.4l-0.6,2.8c-0.1,0.4-0.1,1-0.1,1.9c0,0.7,0.1,1.3,0.4,1.9
	c0.3,0.4,0.4,0.9,0.7,1c0.3,0.1,0.4,0.3,0.9,0.3c0.3,0,0.6-0.1,1-0.3c0.3-0.1,0.7-0.4,1.2-1C479,358.9,479.5,358.4,480.1,357.5
	L480.1,357.5z M477.3,347c-0.4,0.7-0.7,1.3-0.9,1.9l-0.7,2.5h6.5l0.4-2.5c0.1-0.6,0.1-1.2,0.1-1.9c0-0.9-0.1-1.3-0.3-1.6
	c-0.1-0.4-0.3-0.7-0.6-1c-0.3-0.3-0.6-0.4-1-0.4s-0.9,0.1-1.3,0.4s-0.9,0.7-1.2,1C477.9,345.8,477.6,346.2,477.3,347L477.3,347z"/>
<text transform="matrix(1 0 0 1 493.67 361.2236)" fill="#010101" font-family="'Symbol'" font-size="26.6218">=</text>
<path fill="#010101" d="M523.1,356.7c0.1-0.7,0.4-1.3,0.6-1.9l1.5-4.3h-3c-0.3,0.7-0.6,1.8-0.9,2.8s-0.7,2.1-1,3
	c-0.6,1.3-1,2.5-1.3,3.3c-0.3,0.7-0.6,1.2-0.9,1.5c-0.3,0.3-0.6,0.4-0.9,0.4c-0.3,0-0.4,0.1-0.6,0.1c-0.3,0-0.6-0.1-0.7-0.3
	c-0.3-0.1-0.3-0.4-0.3-0.7s0-0.4,0-0.4c0-0.3,0.1-0.4,0.4-0.7c0.4-0.4,0.7-0.6,0.7-0.7c0.1-0.1,0.3-0.3,0.3-0.3s0.3-0.3,0.6-0.6
	c0.4-0.3,0.6-0.7,0.9-1.3l2.4-6.1h-1.3c-0.3,0-0.7,0.1-1,0.3c-0.4,0.1-0.7,0.4-0.9,0.6l-0.7,0.9h-0.4c0.1-0.3,0.4-0.7,0.9-1.3
	c0.4-0.4,0.7-0.9,1-1.2c0.4-0.4,0.9-0.7,1.3-1c0.4-0.3,1-0.4,1.6-0.4h9.9l-0.6,2.2h-3.4c-0.3,1-0.7,2.1-1,3.1
	c-0.3,0.9-0.6,2.1-0.9,3.3c-0.3,0.9-0.3,1.5,0,1.8c0.1,0.3,0.4,0.4,0.6,0.6c0.1,0.1,0.3,0.1,0.6,0.1s0.6-0.1,1-0.3
	c0.3-0.1,0.6-0.4,0.7-0.9c0.1-0.1,0.1-0.3,0.1-0.4s0.1-0.3,0.1-0.3h0.6c-0.3,1-0.7,1.9-1.3,2.7c-0.6,0.7-1,1.2-1.3,1.3
	c-0.1,0.1-0.4,0.1-0.9,0.4c-0.3,0-0.4,0.1-0.7,0.1c-0.4,0-0.7-0.1-0.9-0.3c-0.1-0.1-0.4-0.4-0.6-0.7c-0.1-0.3-0.3-0.7-0.3-1
	s0-0.7,0-1.2C522.8,357.8,523,357.2,523.1,356.7L523.1,356.7z"/>
<text transform="matrix(1 0 0 1 536.0283 361.2236)" fill="#010101" font-family="'TimesNewRomanPSMT'" font-size="26.6218">/</text>
<text transform="matrix(1 0 0 1 548.5078 361.2236)" fill="#010101" font-family="'TimesNewRomanPSMT'" font-size="26.6218">3</text>
<path fill="#010101" d="M263.6,342.7c0.7-0.4,1.6-0.7,2.5-0.7s1.6,0.3,2.2,0.7s0.9,1,1.3,1.8c0.3,0.6,0.4,1.2,0.6,1.8
	c0.1,0.6,0.1,1.2,0.1,1.8s-0.1,1.2-0.1,1.6c-0.1,0.7-0.3,1.2-0.3,1.5c-0.1,0.6-0.3,1.2-0.6,1.9c-0.3,0.6-0.4,1.3-0.7,1.9
	c-0.3,0.7-0.7,1.5-1.2,2.1s-0.9,1.2-1.6,1.9c-0.6,0.6-1.3,1.2-2.2,1.5c-0.7,0.3-1.5,0.4-2.1,0.4s-1.3-0.1-1.8-0.4
	c-0.6-0.3-1.2-0.9-1.5-1.5c-0.4-0.7-0.6-1.5-0.7-2.1c-0.1-0.7-0.1-1.3,0-2.1c0-0.6,0.1-1.2,0.3-1.9c0.1-0.6,0.3-1.2,0.4-1.9
	c0.1-0.3,0.3-0.9,0.4-1.3s0.3-1,0.6-1.6c0.3-0.7,0.6-1.3,0.9-1.8c0.4-0.6,0.9-1,1.5-1.8C262.1,343.7,262.8,343.1,263.6,342.7
	L263.6,342.7z M265.2,356.4c0.4-0.7,0.7-1.5,0.7-1.9l0.9-2.8h-6.4l-0.6,2.8c-0.1,0.4-0.1,1-0.1,1.9c0,0.7,0.1,1.3,0.4,1.9
	c0.3,0.4,0.4,0.9,0.7,1c0.3,0.1,0.4,0.3,0.9,0.3c0.3,0,0.6-0.1,1-0.3c0.3-0.1,0.7-0.4,1.2-1C264.3,357.9,264.7,357.3,265.2,356.4
	L265.2,356.4z M262.4,345.9c-0.4,0.7-0.7,1.3-0.9,1.9l-0.7,2.5h6.5l0.4-2.5c0.1-0.6,0.1-1.2,0.1-1.9c0-0.9-0.1-1.3-0.3-1.6
	c-0.1-0.4-0.3-0.7-0.6-1c-0.3-0.3-0.6-0.4-1-0.4s-0.9,0.1-1.3,0.4s-0.9,0.7-1.2,1C263.1,344.7,262.8,345.3,262.4,345.9L262.4,345.9z
	"/>
<text transform="matrix(1 0 0 1 278.7226 360.238)" fill="#010101" font-family="'Symbol'" font-size="26.6218">=</text>
<path fill="#010101" d="M308.1,355.8c0.1-0.7,0.4-1.3,0.6-1.9l1.5-4.3h-3c-0.3,0.7-0.6,1.8-0.9,2.8s-0.7,2.1-1,3
	c-0.6,1.3-1,2.5-1.3,3.3c-0.3,0.7-0.6,1.2-0.9,1.5s-0.6,0.4-0.9,0.4s-0.4,0.1-0.6,0.1c-0.3,0-0.6-0.1-0.7-0.3
	c-0.3-0.1-0.3-0.4-0.3-0.7c0-0.3,0-0.4,0-0.4c0-0.3,0.1-0.4,0.4-0.7c0.4-0.4,0.7-0.6,0.7-0.7c0.1-0.1,0.3-0.3,0.3-0.3
	s0.3-0.3,0.6-0.6c0.4-0.3,0.6-0.7,0.9-1.3l2.4-6.1h-1.3c-0.3,0-0.7,0.1-1,0.3c-0.4,0.1-0.7,0.4-0.9,0.6l-0.7,0.9h-0.4
	c0.1-0.3,0.4-0.7,0.9-1.3c0.4-0.4,0.7-0.9,1-1.2c0.4-0.4,0.9-0.7,1.3-1s1-0.4,1.6-0.4h9.9l-0.6,2.2h-3.4c-0.3,1-0.7,2.1-1,3.1
	c-0.3,0.9-0.6,2.1-0.9,3.3c-0.3,0.9-0.3,1.5,0,1.8c0.1,0.3,0.4,0.4,0.6,0.6c0.1,0.1,0.3,0.1,0.6,0.1c0.3,0,0.6-0.1,1-0.3
	c0.3-0.1,0.6-0.4,0.7-0.9c0.1-0.1,0.1-0.3,0.1-0.4s0.1-0.3,0.1-0.3h0.6c-0.3,1-0.7,1.9-1.3,2.7c-0.6,0.7-1,1.2-1.3,1.3
	c-0.1,0.1-0.4,0.1-0.9,0.4c-0.3,0-0.4,0.1-0.7,0.1c-0.4,0-0.7-0.1-0.9-0.3c-0.1-0.1-0.4-0.4-0.6-0.7c-0.1-0.3-0.3-0.7-0.3-1
	s0-0.7,0-1.2C307.9,356.7,308.1,356.3,308.1,355.8L308.1,355.8z"/>
<text transform="matrix(1 0 0 1 321.0818 360.238)" fill="#010101" font-family="'TimesNewRomanPSMT'" font-size="26.6218">/</text>
<text transform="matrix(1 0 0 1 333.5609 360.238)" fill="#010101" font-family="'TimesNewRomanPSMT'" font-size="26.6218">3</text>
<circle fill="#010101" cx="404.7" cy="142.7" r="5.6"/>
<text transform="matrix(1 0 0 1 370.828 151.5497)" fill="#010101" font-family="'TimesNewRomanPS-ItalicMT'" font-size="26.6218">P</text>
<line fill="none" stroke="#000000" stroke-miterlimit="10" x1="175.9" y1="249.2" x2="8.3" y2="468.1"/>
<line fill="none" stroke="#000000" stroke-miterlimit="10" x1="175.9" y1="249.2" x2="777.4" y2="249.2"/>
<line fill="none" stroke="#000000" stroke-miterlimit="10" x1="9.2" y1="468.5" x2="610.7" y2="468.5"/>
<line fill="none" stroke="#000000" stroke-miterlimit="10" x1="775.3" y1="248.2" x2="611.1" y2="469.6"/>
<g>
	<g>
		<line fill="none" stroke="#000000" stroke-miterlimit="10" x1="404.7" y1="468.1" x2="404.7" y2="459.2"/>
		
			<line fill="none" stroke="#000000" stroke-miterlimit="10" stroke-dasharray="13.2151,13.2151" x1="404.7" y1="439.7" x2="404.7" y2="371.4"/>
		<line fill="none" stroke="#000000" stroke-miterlimit="10" x1="404.7" y1="361.6" x2="404.7" y2="352.7"/>
	</g>
</g>
<line fill="none" stroke="#000000" stroke-miterlimit="10" x1="404.7" y1="498.6" x2="404.7" y2="469"/>
<text transform="matrix(1 0 0 1 373.4166 222.0478)" fill="#010101" font-family="'TimesNewRomanPS-ItalicMT'" font-size="48">z</text>
<path fill="#010101" d="M614.2,269c-0.1,0.1-0.4,0.7-1,1.8h-0.4c0.1-0.4,0.3-0.9,0.6-1.5s0.6-1.2,0.9-1.6c0.3-0.6,0.7-0.9,1-1.2
	c0.4-0.3,0.7-0.3,1.2-0.3c0.6,0,1,0.1,1.5,0.6c0.4,0.4,0.7,1,0.9,2.1c0.1,0.9,0.1,2.1,0.1,3.3c0,1-0.1,2.7-0.1,5
	c0,1.6-0.1,2.7-0.1,3.1s0,1,0,1.5c0,0.9,0.1,1.5,0.6,1.8c0.3,0.3,0.7,0.4,1.2,0.4c0.1,0,0.4-0.1,0.9-0.3c0.4-0.1,0.7-0.4,1-0.9
	c0.1-0.3,0.3-0.6,0.6-1h0.4c-0.1,0.4-0.1,0.7-0.3,1c-0.1,0.3-0.1,0.6-0.3,0.9c-0.3,0.4-0.4,0.9-0.9,1.3c-0.3,0.4-0.7,0.7-1.2,1
	c-0.4,0.3-0.9,0.4-1.3,0.4c-0.4,0-0.9-0.1-1.2-0.6c-0.3-0.3-0.6-0.7-0.6-1.3c-0.1-0.6-0.1-1.8,0-3.4c0-1.8,0.1-3.4,0.4-4.9L611,286
	h-2.5l9.5-13.3c0-1,0-1.9,0-2.7c-0.1-0.7-0.1-1-0.4-1.2c-0.1-0.1-0.3-0.3-0.6-0.4c-0.1-0.1-0.4-0.1-0.7-0.1s-0.4,0-0.4,0
	s-0.3,0.1-0.7,0.3C614.7,268.7,614.4,268.9,614.2,269L614.2,269z"/>
<g>
	<g>
		<path fill="none" stroke="#000000" stroke-miterlimit="10" d="M613.6,296.5c0,2.2-0.4,9.3-5.9,15.8c-1.8,2.1-3.5,3.5-5.5,4.7"/>
		<g>
			<path d="M604.6,315.5l5,3.7l-0.1,0.1l-9.3,0.1c-3.1,0.6-6.1,1-9.2,1.6c2.5-1.8,5-3.5,7.7-5.3l6.7-6.5h0.1L604.6,315.5z"/>
		</g>
	</g>
</g>
<g>
	<g>
		<path fill="none" stroke="#000000" stroke-miterlimit="10" d="M197,289.1c0,2.2,0.4,9.3,5.9,15.8c1.8,2.1,3.5,3.5,5.5,4.7"/>
		<g>
			<path d="M206.2,308.1l-1-6.2h0.1l6.7,6.5c2.5,1.8,5,3.5,7.7,5.3c-3.1-0.6-6.1-1-9.2-1.6l-9.3-0.1l-0.1-0.1L206.2,308.1z"/>
		</g>
	</g>
</g>
<path fill="#010101" d="M183.2,276.1c-0.1,0.1-0.4,0.7-1,1.8h-0.4c0.1-0.4,0.3-0.9,0.6-1.5s0.6-1.2,0.9-1.6c0.3-0.6,0.7-0.9,1-1.2
	c0.4-0.3,0.7-0.3,1.2-0.3c0.6,0,1,0.1,1.5,0.6c0.4,0.4,0.7,1,0.9,2.1c0.1,0.9,0.1,2.1,0.1,3.3c0,1-0.1,2.7-0.1,5
	c0,1.6-0.1,2.7-0.1,3.1s0,1,0,1.5c0,0.9,0.1,1.5,0.6,1.8c0.3,0.3,0.7,0.4,1.2,0.4c0.1,0,0.4-0.1,0.9-0.3c0.4-0.1,0.7-0.4,1-0.9
	c0.1-0.3,0.3-0.6,0.6-1h0.4c-0.1,0.4-0.1,0.7-0.3,1c-0.1,0.3-0.1,0.6-0.3,0.9c-0.3,0.4-0.4,0.9-0.9,1.3c-0.3,0.4-0.7,0.7-1.2,1
	c-0.4,0.3-0.9,0.4-1.3,0.4c-0.4,0-0.9-0.1-1.2-0.6c-0.3-0.3-0.6-0.7-0.6-1.3c-0.1-0.6-0.1-1.8,0-3.4c0-1.8,0.1-3.4,0.4-4.9l-7.1,9.8
	h-2.5l9.5-13.3c0-1,0-1.9,0-2.7c-0.1-0.7-0.1-1-0.4-1.2c-0.1-0.1-0.3-0.3-0.6-0.4c-0.1-0.1-0.4-0.1-0.7-0.1s-0.4,0-0.4,0
	s-0.3,0.1-0.7,0.3S183.4,276,183.2,276.1L183.2,276.1z"/>
<text transform="matrix(1 0 0 1 458.4853 294.1571)" fill="#010101" font-family="'TimesNewRomanPS-ItalicMT'" font-size="26.6218">R</text>
</svg>
