<?xml version="1.0" encoding="utf-8"?>
<!-- Generator: Adobe Illustrator 19.1.0, SVG Export Plug-In . SVG Version: 6.00 Build 0)  -->
<svg version="1.1" id="Layer_1" xmlns="http://www.w3.org/2000/svg" xmlns:xlink="http://www.w3.org/1999/xlink" x="0px" y="0px"
	 viewBox="0 0 577 324" style="enable-background:new 0 0 577 324;" xml:space="preserve">
<style type="text/css">
	.st0{fill:#D3B9D9;stroke:#000000;stroke-width:3;stroke-linecap:round;stroke-linejoin:round;}
	.st1{fill:#D0E180;}
	.st2{fill:#81C997;}
	.st3{fill:#EE8FBC;}
	.st4{fill:none;stroke:#000000;stroke-width:3;stroke-linecap:round;stroke-linejoin:round;}
	.st5{fill:none;stroke:#000000;stroke-linecap:round;stroke-linejoin:round;}
	.st6{fill:#010101;}
	.st7{font-family:'TimesNewRomanPS-ItalicMT';}
	.st8{font-size:23.94px;}
	.st9{fill:none;stroke:#000000;stroke-width:2;stroke-linecap:round;stroke-linejoin:round;}
	.st10{font-family:'TimesNewRomanPSMT';}
	.st11{font-size:24px;}
	.st12{fill:none;stroke:#000000;stroke-width:1.5;stroke-miterlimit:10;}
</style>
<circle class="st0" cx="355.3" cy="206.3" r="50"/>
<path class="st1" d="M381.3,206.3c0,13.8-11.2,25-25,25s-25-11.2-25-25s11.2-25,25-25S381.3,192.5,381.3,206.3z"/>
<g id="XMLID_1_">
	<g>
		<path class="st2" d="M232.1,110.7l136,73.2c-3.4-1.8-7.3-2.8-11.5-2.8c-13.8,0-25,11.2-25,25c0,9,4.8,17,12,21.4l-0.1,0.1
			l-1.2-0.6l-9.3-5l-125.2-67.4l0,0c-7.6-4.3-12.7-12.4-12.7-21.8c0-13.8,11.2-25,25-25C224.4,107.8,228.5,108.9,232.1,110.7
			L232.1,110.7z"/>
	</g>
	<g>
	</g>
</g>
<g id="XMLID_2_">
	<g>
		<path class="st3" d="M106.8,16.1l271.9,146.4c-6.9-3.6-14.7-5.6-23-5.6c-27.6,0-50,22.4-50,50c0,18.1,9.6,33.9,24,42.7l-0.2,0.3
			l-2.3-1.3l-18.7-10L58.3,103.8l0-0.1c-15.2-8.6-25.4-24.9-25.4-43.5c0-27.6,22.4-50,50-50c8.6,0,16.7,2.2,23.8,6L106.8,16.1z"/>
	</g>
	<g>
		<polyline class="st4" points="378.8,162.4 106.8,16.1 106,15.6 		"/>
		<polyline class="st4" points="330,250.1 329.6,249.9 327.3,248.6 308.6,238.6 58.3,103.8 57.2,103.3 		"/>
		<path class="st4" d="M58.3,103.8c-15.2-8.6-25.4-24.9-25.4-43.5c0-27.6,22.4-50,50-50c8.6,0,16.7,2.2,23.8,6"/>
		<path class="st4" d="M331.2,250.4c-0.5-0.3-0.9-0.5-1.4-0.8c-14.4-8.8-24-24.6-24-42.7c0-27.6,22.4-50,50-50c8.3,0,16.1,2,23,5.6
			c0.3,0.2,0.6,0.3,0.9,0.5"/>
	</g>
</g>
<g>
	<g>
		<line class="st5" x1="355.3" y1="206.3" x2="366.7" y2="194.2"/>
		<g>
			<path d="M365.5,195.6l-4.1-0.9l0-0.1l5.7-2.7c1.7-1.2,3.5-2.4,5.2-3.5c-1.1,1.8-2.2,3.6-3.2,5.4l-2.3,5.9l-0.1,0L365.5,195.6z"/>
		</g>
	</g>
</g>
<g>
	<g>
		<line class="st5" x1="355.3" y1="206.3" x2="377.9" y2="240.8"/>
		<g>
			<path d="M376.9,239.3l1.8-3.8l0.1,0.1l1.3,6.2c0.7,2,1.5,3.9,2.2,5.9c-1.5-1.5-3-2.9-4.5-4.4l-5.2-3.6l0-0.1L376.9,239.3z"/>
		</g>
	</g>
</g>
<text transform="matrix(1 0 0 1 380.0839 234.3339)" class="st6 st7 st8">b</text>
<text transform="matrix(1 0 0 1 348.3999 198.5669)" class="st6 st7 st8">a</text>
<line class="st5" x1="317" y1="275.9" x2="295" y2="316.9"/>
<line class="st5" x1="33" y1="133" x2="11" y2="174"/>
<g>
	<g>
		<line class="st9" x1="36.6" y1="158.4" x2="292.4" y2="287.6"/>
		<g>
			<path d="M39.8,160l7.2-4.5l-0.1-0.3l-12.6-1.1c-4.1-1-8.1-2.1-12.2-3.1c3.2,2.6,6.5,5.3,9.7,8l8.4,9.5l0.3,0L39.8,160z"/>
		</g>
		<g>
			<path d="M289.2,286l-0.7-8.4l0.3,0l8.4,9.5c3.2,2.6,6.5,5.3,9.7,8c-4.1-1-8.1-2.1-12.2-3.1l-12.6-1.1l-0.2-0.2L289.2,286z"/>
		</g>
	</g>
</g>
<text transform="matrix(1 0 0 1 149.4999 251.9999)" class="st6 st7 st8">L</text>
<text transform="matrix(1 0 0 1 190 23)"><tspan x="0" y="0" class="st10 st11">outer cylinderical shell</tspan><tspan x="0" y="28.8" class="st10 st11">with charge -</tspan><tspan x="126.6" y="28.8" class="st7 st11">Q</tspan></text>
<g>
	<g>
		<path class="st12" d="M286,64c0,3.5-0.4,11.1-5,19c-0.7,1.2-1.5,2.4-2.3,3.5"/>
		<g>
			<path d="M280.4,84.3l6.2,1.4l0,0.2l-8.6,3.9c-2.6,1.7-5.2,3.5-7.9,5.2c1.6-2.7,3.3-5.4,4.9-8l3.6-8.8l0.2-0.1L280.4,84.3z"/>
		</g>
	</g>
</g>
<text transform="matrix(1 0 0 1 382 102)"><tspan x="0" y="0" class="st10 st11">inner solid cylinder</tspan><tspan x="0" y="28.8" class="st10 st11">with charge +</tspan><tspan x="132.2" y="28.8" class="st7 st11">Q</tspan></text>
<g>
	<g>
		<path class="st12" d="M418,148c0,6.5-1.2,20.3-13.4,34.9c-5.9,7-12.7,12.3-18.9,16.2"/>
		<g>
			<path d="M388,197.6l5.5,3.1l-0.1,0.2l-9.4,1.3c-3,0.9-6,1.9-9,2.8c2.3-2.1,4.7-4.2,7-6.3l5.9-7.4l0.2,0L388,197.6z"/>
		</g>
	</g>
</g>
</svg>
