<?xml version="1.0" encoding="utf-8"?>
<!-- Generator: Adobe Illustrator 19.1.0, SVG Export Plug-In . SVG Version: 6.00 Build 0)  -->
<svg version="1.1" id="Layer_1" xmlns="http://www.w3.org/2000/svg" xmlns:xlink="http://www.w3.org/1999/xlink" x="0px" y="0px"
	 viewBox="0 0 1056 742" style="enable-background:new 0 0 1056 742;" xml:space="preserve">
<style type="text/css">
	.st0{fill:#F69D9F;stroke:#000000;stroke-width:3;stroke-miterlimit:10;}
	.st1{fill:#010101;}
	.st2{fill:none;stroke:#000000;stroke-width:2;stroke-miterlimit:10;}
	.st3{fill:none;stroke:#000000;stroke-width:2;stroke-miterlimit:10;stroke-dasharray:11.957,11.957;}
	.st4{fill:none;stroke:#000000;stroke-width:2;stroke-miterlimit:10;stroke-dasharray:11.9185,11.9185;}
	.st5{font-family:'TimesNewRomanPS-ItalicMT';}
	.st6{font-size:48px;}
	.st7{font-family:'Symbol';}
	.st8{fill:none;stroke:#000000;stroke-miterlimit:10;}
	.st9{font-family:'TimesNewRomanPSMT';}
	.st10{font-size:54px;}
	.st11{font-family:'TimesNewRomanPS-BoldMT';}
	.st12{font-size:36px;}
	.st13{font-size:27.75px;}
</style>
<rect x="369.4" y="116.3" class="st0" width="226.6" height="554.4"/>
<path class="st1" d="M250,300.7c-0.5-0.5-0.8-1-1-1.5l-1.9,7.5l-0.2,0.7c-0.3,1.2-0.6,2.1-0.8,2.8c-0.1,0.4-0.4,1-0.9,2h-4.2
	c0.3-0.8,0.9-2.2,1.6-4.2l4.8-20.3c0.5-1.8,1.3-3.5,2.6-5.1c1.3-1.6,2.7-2.8,4.3-3.6c1.4-0.7,2.6-1.2,3.6-1.5
	c0.7-0.2,1.4-0.3,2.3-0.3c0.6,0,1.4,0.1,2.5,0.2c1,0.1,1.9,0.6,2.8,1.3c0.8,0.6,1.5,1.5,2.1,2.5c0.6,1.1,0.9,2.2,0.9,3.4
	c0,1.3-0.1,2.6-0.4,3.9c-0.3,1-0.7,2.2-1.3,3.7c-0.6,1.3-1.4,2.6-2.4,3.9c-1.1,1.4-2.2,2.5-3.3,3.3c-1.3,0.9-2.5,1.6-3.6,2
	c-1.2,0.5-2.4,0.7-3.4,0.7c-0.5,0-1.3-0.1-2.2-0.4C251.1,301.4,250.4,301.1,250,300.7L250,300.7z M254.3,281.3c-1,0.7-1.7,2-2.1,3.8
	l-2.4,10.6c-0.2,0.7,0.1,1.6,0.8,2.7c0.7,1.1,1.9,1.6,3.4,1.6c0.5,0,1.2-0.1,2-0.2c1-0.2,2.1-0.8,3.5-2c1.4-1.2,2.3-2.5,2.8-3.8
	c0.2-0.5,0.4-1,0.5-1.5c0.2-0.5,0.3-0.8,0.3-0.9l0.2-0.7c0.3-1.1,0.4-2.1,0.4-3.2c0-0.8-0.1-1.8-0.4-3c-0.3-1.1-0.8-2.1-1.6-3
	c-0.8-0.9-1.6-1.5-2.4-1.7c-1-0.2-1.6-0.2-1.8-0.2c-0.5,0-0.9,0.1-1.2,0.2C255.9,280.1,255.2,280.6,254.3,281.3L254.3,281.3z"/>
<g>
	<g>
		<line class="st2" x1="15.1" y1="394.1" x2="21.1" y2="394.1"/>
		<line class="st3" x1="33.1" y1="394.1" x2="1007.6" y2="394.1"/>
		<line class="st2" x1="1013.6" y1="394.1" x2="1019.6" y2="394.1"/>
		<g>
			<path d="M1016,394.1l-4.4-7.2l0.2-0.2l11.8,4.7c4.1,0.9,8.2,1.8,12.3,2.7c-4.1,0.9-8.2,1.8-12.3,2.7l-11.8,4.7l-0.2-0.1
				L1016,394.1z"/>
		</g>
	</g>
</g>
<g>
	<g>
		<line class="st2" x1="482.7" y1="689.8" x2="482.7" y2="683.8"/>
		<line class="st4" x1="482.7" y1="671.9" x2="482.7" y2="34.3"/>
		<line class="st2" x1="482.7" y1="28.3" x2="482.7" y2="22.3"/>
		<g>
			<path d="M482.7,25.9l-7.2,4.4l-0.2-0.2l4.7-11.8c0.9-4.1,1.8-8.2,2.7-12.3c0.9,4.1,1.8,8.2,2.7,12.3L490,30l-0.1,0.2L482.7,25.9z
				"/>
		</g>
	</g>
</g>
<rect x="328.1" y="713" class="st1" width="25.1" height="2.6"/>
<text transform="matrix(1 0 0 1 358.8859 727.9918)" class="st1 st5 st6">d</text>
<text transform="matrix(1 0 0 1 1018.4016 367.5705)" class="st1 st5 st6">x</text>
<text transform="matrix(1 0 0 1 559.8719 724.7922)" class="st1 st7 st6">+</text>
<text transform="matrix(1 0 0 1 593.6219 724.7922)" class="st1 st5 st6">d</text>
<g>
	<g>
		<line class="st8" x1="368.4" y1="667.1" x2="368.4" y2="673.1"/>
		<line class="st8" x1="368.4" y1="673.5" x2="368.4" y2="679.5"/>
	</g>
</g>
<text transform="matrix(1 0 0 1 437.0006 47.3817)" class="st1 st5 st6">y</text>
<g>
	<g>
		<line class="st2" x1="810.8" y1="223.6" x2="898" y2="223.6"/>
		<g>
			<path d="M894.4,223.6l-4.4-7.2l0.2-0.2l11.8,4.7c4.1,0.9,8.2,1.8,12.3,2.7c-4.1,0.9-8.2,1.8-12.3,2.7l-11.8,4.7l-0.2-0.1
				L894.4,223.6z"/>
		</g>
	</g>
</g>
<g>
	<g>
		<line class="st2" x1="810.8" y1="223.6" x2="810.8" y2="136.4"/>
		<g>
			<path d="M810.8,140l-7.2,4.4l-0.2-0.2l4.7-11.8c0.9-4.1,1.8-8.2,2.7-12.3c0.9,4.1,1.8,8.2,2.7,12.3l4.7,11.8l-0.1,0.2L810.8,140z
				"/>
		</g>
	</g>
</g>
<text transform="matrix(1 0 0 1 891.6902 189.3413)" class="st1 st9 st10">ˆ</text>
<text transform="matrix(1 0 0 1 892.8152 203.9663)" class="st1 st11 st10">i</text>
<text transform="matrix(1 0 0 1 772.1589 148.6919)" class="st1 st9 st10">ˆ</text>
<text transform="matrix(1 0 0 1 774.4089 163.3169)" class="st1 st11 st10">j</text>
<text transform="matrix(0.9999 1.343000e-02 -1.343000e-02 0.9999 433.0221 726.3767)" class="st1 st5 st6">x</text>
<text transform="matrix(1 0 0 1 466.0717 726.5001)" class="st1 st7 st6">=</text>
<text transform="matrix(1 0 0 1 502.9467 726.5001)" class="st1 st9 st6">0</text>
<g>
	<g>
		<line class="st8" x1="482.7" y1="667" x2="482.7" y2="673"/>
		<line class="st8" x1="482.7" y1="673.3" x2="482.7" y2="679.3"/>
	</g>
</g>
<text transform="matrix(1 0 0 1 15.4129 214.133)"><tspan x="0" y="0" class="st9 st12">semi-infinite slab </tspan><tspan x="0" y="43.2" class="st9 st12">with uniform volume </tspan><tspan x="0" y="86.4" class="st9 st12">charge density</tspan></text>
<g>
	<g>
		<path class="st2" d="M308.2,213c12.8-10.7,30.8-23.7,55-36c15.9-8.1,31.3-14.3,45-19"/>
		<g>
			<path d="M404.8,159.2l-6.4-5.5l0.2-0.2l12.6,0.8c4.2-0.4,8.3-0.8,12.5-1.3c-3.6,2.1-7.2,4.3-10.8,6.4l-9.7,8.1l-0.3,0
				L404.8,159.2z"/>
		</g>
	</g>
</g>
<line class="st8" x1="755.8" y1="365.4" x2="755.8" y2="416.4"/>
<circle cx="482.7" cy="393.5" r="7.5"/>
<circle cx="756" cy="393" r="7.5"/>
<text transform="matrix(1 0 0 1 713.7515 382.2542)" class="st1 st5 st6">B</text>
<text transform="matrix(1 0 0 1 709.9688 453.9434)" class="st1 st5 st6">x</text>
<text transform="matrix(1 0 0 1 733.0938 469.4434)" class="st1 st5 st13">B</text>
<text transform="matrix(1 0 0 1 764.8438 453.9434)" class="st1 st7 st6">&gt;</text>
<text transform="matrix(1 0 0 1 800.7188 453.9434)" class="st1 st9 st6">0</text>
<text transform="matrix(1 0 0 1 437.8308 458.1931)" class="st1 st5 st6">x</text>
<text transform="matrix(1 0 0 1 460.9558 473.6931)" class="st1 st5 st13">P</text>
<text transform="matrix(1 0 0 1 492.7058 458.1931)" class="st1 st7 st6">=</text>
<text transform="matrix(1 0 0 1 529.5808 458.1931)" class="st1 st9 st6">0</text>
<text transform="matrix(1 0 0 1 442.4877 380.5107)" class="st1 st5 st6">P</text>
</svg>
